<?xml version="1.0" encoding="UTF-8" standalone="no"?>
<!-- Generator: Adobe Illustrator 24.0.0, SVG Export Plug-In . SVG Version: 6.00 Build 0)  -->

<svg
   version="1.1"
   id="svg8740"
   x="0px"
   y="0px"
   viewBox="0 0 449.8 354.6"
   style="enable-background:new 0 0 449.8 354.6;"
   xml:space="preserve"
   sodipodi:docname="pico2_pin.svg"
   inkscape:version="1.2.2 (732a01da63, 2022-12-09)"
   inkscape:export-filename="pico2_pin.png"
   inkscape:export-xdpi="96"
   inkscape:export-ydpi="96"
   xmlns:inkscape="http://www.inkscape.org/namespaces/inkscape"
   xmlns:sodipodi="http://sodipodi.sourceforge.net/DTD/sodipodi-0.dtd"
   xmlns="http://www.w3.org/2000/svg"
   xmlns:svg="http://www.w3.org/2000/svg"><defs
   id="defs1239" /><sodipodi:namedview
   id="namedview1237"
   pagecolor="#ffffff"
   bordercolor="#666666"
   borderopacity="1.0"
   inkscape:showpageshadow="2"
   inkscape:pageopacity="0.0"
   inkscape:pagecheckerboard="0"
   inkscape:deskcolor="#d1d1d1"
   showgrid="true"
   inkscape:zoom="1.7149234"
   inkscape:cx="170.85312"
   inkscape:cy="146.65378"
   inkscape:window-width="1920"
   inkscape:window-height="1017"
   inkscape:window-x="-8"
   inkscape:window-y="-8"
   inkscape:window-maximized="1"
   inkscape:current-layer="svg8740"><inkscape:grid
     type="xygrid"
     id="grid16169" /></sodipodi:namedview>
<style
   type="text/css"
   id="style2">
	.st0{fill:#D8D8D8;}
	.st1{fill:#232323;}
	.st2{font-family:'DroidSans';}
	.st3{font-size:5.6746px;}
	.st4{fill:#FFFFFF;}
	.st5{font-size:6.0897px;}
	.st6{fill:#FF5E4D;}
	.st7{font-size:5.1088px;}
	.st8{fill:none;}
	.st9{fill:#004E29;}
	.st10{fill:#006837;}
	.st11{fill:#33865F;}
	.st12{fill:none;stroke:#FCEE21;stroke-width:2;stroke-miterlimit:10;}
	.st13{fill:#30312E;}
	.st14{fill:#363A44;}
	.st15{fill:#DBDDDA;}
	.st16{fill:#2A2D2E;}
	.st17{fill:#ECF6FD;}
	.st18{fill:#CCCCCC;}
	.st19{fill:#33CC33;}
	.st20{fill:#958863;}
	.st21{fill:#9A916C;}
	.st22{font-size:5.6734px;}
	.st23{font-size:8.1048px;}
	.st24{fill:#3D3F38;}
	.st25{font-size:3.5661px;}
	.st26{fill:none;stroke:#000000;stroke-miterlimit:10;}
	.st27{fill:none;stroke:#FF0000;stroke-miterlimit:10;}
	.st28{fill:#FF0000;}
	.st29{font-family:'Ubuntu-Bold';}
	.st30{font-size:15.1965px;}
</style>
<desc
   id="desc4">
	<referenceFile>pico-pin.svg</referenceFile>
</desc>
<rect
   id="rect1337"
   x="165.31387"
   y="79.016922"
   class="st0"
   width="7.6999998"
   height="7.5999999" />
<rect
   id="rect1339"
   x="145.11388"
   y="79.016922"
   class="st1"
   width="19"
   height="7.5999999" />
<text
   id="text1341"
   transform="scale(1.0064293,0.99361176)"
   class="st1 st2 st3"
   style="font-size:6px;stroke-width:1.00643"
   x="166.43748"
   y="85.498711">3</text>
<text
   id="text1343"
   transform="scale(1.0064293,0.99361176)"
   class="st4 st2 st3"
   style="font-size:6px;stroke-width:1.00643"
   x="147.3027"
   y="85.498711">GND</text>
<rect
   id="rect1469"
   x="165.3"
   y="147"
   class="st0"
   width="7.6999998"
   height="7.5999999" />
<rect
   id="rect1471"
   x="145.10001"
   y="147"
   class="st1"
   width="19"
   height="7.5999999" />
<text
   id="text1473"
   transform="scale(1.0064293,0.99361176)"
   class="st1 st2 st3"
   style="font-size:6px;stroke-width:1.00643"
   x="166.42371"
   y="153.95311">8</text>
<text
   id="text1475"
   transform="scale(1.0064293,0.99361176)"
   class="st4 st2 st3"
   style="font-size:6px;stroke-width:1.00643"
   x="147.28893"
   y="153.95311">GND</text>
<rect
   id="rect1477"
   x="165.29741"
   y="215.01329"
   class="st0"
   width="7.6999998"
   height="7.5999999" />
<rect
   id="rect1479"
   x="145.09741"
   y="215.01329"
   class="st1"
   width="19"
   height="7.5999999" />
<text
   id="text1481"
   transform="scale(1.0064293,0.99361177)"
   class="st1 st2 st3"
   style="font-size:6px;stroke-width:1.00643"
   x="164.73766"
   y="222.36189">13</text>
<text
   id="text1483"
   transform="scale(1.0064293,0.99361177)"
   class="st4 st2 st3"
   style="font-size:6px;stroke-width:1.00643"
   x="147.28635"
   y="222.36189">GND</text>
<rect
   id="rect1485"
   x="165.2874"
   y="283.01248"
   class="st0"
   width="7.6999998"
   height="7.5999999" />
<rect
   id="rect1487"
   x="145.0874"
   y="283.01248"
   class="st1"
   width="19"
   height="7.5999999" />
<text
   id="text1489"
   transform="scale(1.0064293,0.99361177)"
   class="st1 st2 st3"
   x="164.72771"
   y="290.71133"
   style="font-size:6px;stroke-width:1.00643">18</text>
<text
   id="text1571"
   transform="scale(1.0064293,0.99361177)"
   class="st4 st2 st3"
   x="147.27641"
   y="290.71133"
   style="font-size:6px;stroke-width:1.00643">GND</text>
<rect
   id="rect1491"
   x="289.99777"
   y="52.008888"
   class="st0"
   width="7.5999999"
   height="7.5999999" />
<text
   id="text1493"
   class="st1 st2 st5"
   style="font-size:6px"
   x="290.58197"
   y="58.03529">40</text>
<rect
   id="rect1495"
   x="290.01599"
   y="65.453331"
   class="st0"
   width="7.5999999"
   height="7.5999999" />
<text
   id="text1497"
   class="st1 st2 st5"
   style="font-size:6px"
   x="290.60019"
   y="71.428329">39</text>
<rect
   id="rect1499"
   x="289.99496"
   y="78.984596"
   class="st0"
   width="7.5999999"
   height="7.5999999" />
<text
   id="text1501"
   class="st1 st2 st5"
   x="290.57916"
   y="84.958595">38</text>
<rect
   id="rect1507"
   x="289.99777"
   y="106.13421"
   class="st0"
   width="7.5999999"
   height="7.5999999" />
<text
   id="text1509"
   class="st1 st2 st5"
   style="font-size:6px"
   x="290.58197"
   y="112.11272">36</text>
<rect
   id="rect1559"
   x="289.99496"
   y="147.0661"
   class="st0"
   width="7.5999999"
   height="7.5999999" />
<text
   id="text1561"
   class="st1 st2 st5"
   style="font-size:6px"
   x="290.57916"
   y="153.08821">33</text>
<rect
   id="rect1563"
   x="289.99496"
   y="214.9577"
   class="st0"
   width="7.5999999"
   height="7.5999999" />
<text
   id="text1565"
   class="st1 st2 st5"
   style="font-size:6px"
   x="290.57916"
   y="220.95052">28</text>
<rect
   id="rect1567"
   x="291"
   y="283.09067"
   class="st0"
   width="7.5999999"
   height="7.5999999" />
<text
   id="text1569"
   class="st1 st2 st5"
   x="291.5842"
   y="289.00925"
   style="font-size:6px">23</text>
<rect
   id="rect1573"
   x="298.69778"
   y="52.008888"
   class="st6"
   width="18.799999"
   height="7.5999999" />
<text
   id="text1575"
   class="st4 st2 st5"
   style="font-size:6px"
   x="301.01212"
   y="58.03529">VBUS</text>
<rect
   id="rect1577"
   x="298.716"
   y="65.453331"
   class="st6"
   width="18.799999"
   height="7.5999999" />
<text
   id="text1579"
   class="st4 st2 st5"
   style="font-size:6px"
   x="301.1011"
   y="71.428329">VSYS</text>
<rect
   id="rect1581"
   x="298.69498"
   y="78.984596"
   class="st1"
   width="18.799999"
   height="7.5999999" />
<text
   id="text1583"
   class="st4 st2 st5"
   style="font-size:6px"
   x="301.84375"
   y="84.958595">GND</text>
<rect
   id="rect1587"
   x="298.69778"
   y="106.13421"
   class="st6"
   width="18.799999"
   height="7.5999999" />
<text
   id="text1589"
   class="st4 st2 st7"
   style="font-size:6px"
   x="300.50867"
   y="111.81591">3V3(O)</text>
<rect
   id="rect1641"
   x="298.69498"
   y="147.0661"
   class="st1"
   width="18.799999"
   height="7.5999999" />
<text
   id="text1643"
   class="st4 st2 st5"
   style="font-size:6px"
   x="301.84375"
   y="153.08821">GND</text>
<rect
   id="rect1645"
   x="298.69498"
   y="214.9577"
   class="st1"
   width="18.799999"
   height="7.5999999" />
<text
   id="text1647"
   class="st4 st2 st5"
   style="font-size:6px"
   x="301.84375"
   y="220.95052">GND</text>
<rect
   id="rect1649"
   x="299.70001"
   y="283.09067"
   class="st1"
   width="18.799999"
   height="7.5999999" />
<text
   id="text1651"
   class="st4 st2 st5"
   x="302.84879"
   y="289.00925">GND</text>

<line
   class="st26"
   x1="130.38391"
   y1="82.497314"
   x2="141.9839"
   y2="82.497314"
   id="line1202" />
<line
   class="st26"
   x1="130.37424"
   y1="150.50934"
   x2="141.97423"
   y2="150.50934"
   id="line1204" />
<line
   class="st26"
   x1="130.37164"
   y1="218.47639"
   x2="141.97163"
   y2="218.47639"
   id="line1206" />
<line
   class="st26"
   x1="130.37985"
   y1="286.97604"
   x2="141.97984"
   y2="286.97604"
   id="line1208" />
<line
   class="st26"
   x1="322.94958"
   y1="82.551544"
   x2="334.54959"
   y2="82.551544"
   id="line1210" />
<line
   class="st27"
   x1="322.79776"
   y1="55.608891"
   x2="334.39777"
   y2="55.608891"
   id="line1212" />
<line
   class="st27"
   x1="328.59778"
   y1="49.808891"
   x2="328.59778"
   y2="61.40889"
   id="line1214" />
<line
   class="st27"
   x1="322.81598"
   y1="69.253334"
   x2="334.41599"
   y2="69.253334"
   id="line1216" />
<line
   class="st27"
   x1="328.616"
   y1="63.453327"
   x2="328.616"
   y2="75.053329"
   id="line1218" />
<line
   class="st27"
   x1="322.79776"
   y1="110.53421"
   x2="334.39777"
   y2="110.53421"
   id="line1220" />
<line
   class="st27"
   x1="328.59778"
   y1="104.73421"
   x2="328.59778"
   y2="116.33421"
   id="line1222" />
<line
   class="st26"
   x1="323.00113"
   y1="151.00308"
   x2="334.60114"
   y2="151.00308"
   id="line1224" />
<line
   class="st26"
   x1="323.01361"
   y1="218.57816"
   x2="334.61362"
   y2="218.57816"
   id="line1226" />
<line
   class="st26"
   x1="324.00616"
   y1="287.44614"
   x2="335.60617"
   y2="287.44614"
   id="line1228" />
<rect
   x="226.8"
   y="12.2"
   class="st28"
   width="9.1"
   height="12.3"
   id="rect1230" />
<polygon
   class="st28"
   points="231.4,37.7 240.2,22.5 222.6,22.5 "
   id="polygon1232" />
<text
   transform="matrix(1 0 0 1 163.9943 24.6137)"
   class="st28 st29 st30"
   id="text1234">POWER</text>
<g
   id="g4988"
   transform="matrix(1.4163802,0,0,1.4163802,120.4374,-32465.335)"><path
     style="fill:none;stroke-width:1.33333"
     inkscape:connector-curvature="0"
     d="m 56.871746,22966.566 c 1.852007,0 3.358681,-1.507 3.358681,-3.36 0,-1.854 -1.506674,-3.359 -3.358681,-3.359 -1.852008,0 -3.358681,1.507 -3.358681,3.359 0,1.852 1.506673,3.36 3.358681,3.36 z"
     id="path4-2" /><path
     style="fill:none;stroke-width:1.33333"
     inkscape:connector-curvature="0"
     d="m 99.919926,23143.832 c 1.852004,0 3.358674,-1.506 3.358674,-3.36 0,-1.853 -1.50667,-3.36 -3.358674,-3.36 -1.853343,0 -3.360015,1.507 -3.360015,3.36 0,1.854 1.506672,3.36 3.360015,3.36 z"
     id="path6-7" /><path
     style="fill:none;stroke-width:1.33333"
     inkscape:connector-curvature="0"
     d="m 99.919926,22966.566 c 1.852004,0 3.358674,-1.507 3.358674,-3.36 0,-1.854 -1.50667,-3.359 -3.358674,-3.359 -1.853343,0 -3.360015,1.507 -3.360015,3.359 0,1.852 1.506672,3.36 3.360015,3.36 z"
     id="path8-8" /><ellipse
     style="fill:none;stroke-width:1.33333"
     ry="3.3586671"
     rx="3.358681"
     cy="23140.473"
     cx="56.871746"
     id="circle10-5" /><path
     style="fill:#004e29;stroke-width:1.33333"
     inkscape:connector-curvature="0"
     d="m 118.08,22968.616 v -6.376 c 0,0 0,0 0,0 -0.26267,0 -0.50134,-0.08 -0.72133,-0.19 v 6.756 c 0.21999,-0.112 0.45866,-0.19 0.72133,-0.19 0,0 0,0 0,0 z"
     id="path12-2" /><path
     style="fill:#004e29;stroke-width:1.33333"
     inkscape:connector-curvature="0"
     d="m 118.08,22978.216 v -6.376 c 0,0 0,0 0,0 -0.26267,0 -0.50134,-0.08 -0.72133,-0.19 v 6.756 c 0.21999,-0.111 0.45866,-0.19 0.72133,-0.19 0,0 0,0 0,0 z"
     id="path14-3" /><path
     style="fill:#004e29;stroke-width:1.33333"
     inkscape:connector-curvature="0"
     d="m 118.08,22987.816 v -6.374 c 0,0 0,0 0,0 -0.26267,0 -0.50134,-0.08 -0.72133,-0.191 v 6.755 c 0.21999,-0.112 0.45866,-0.19 0.72133,-0.19 0,0 0,0 0,0 z"
     id="path16-7" /><path
     style="fill:#004e29;stroke-width:1.33333"
     inkscape:connector-curvature="0"
     d="m 118.08,22997.415 v -6.373 c 0,0 0,0 0,0 -0.26267,0 -0.50134,-0.08 -0.72133,-0.191 v 6.753 c 0.21999,-0.112 0.45866,-0.189 0.72133,-0.189 0,0 0,0 0,0 z"
     id="path18-7" /><path
     style="fill:#004e29;stroke-width:1.33333"
     inkscape:connector-curvature="0"
     d="m 118.08,23007.015 v -6.375 c 0,0 0,0 0,0 -0.26267,0 -0.50134,-0.08 -0.72133,-0.19 v 6.754 c 0.21999,-0.112 0.45866,-0.189 0.72133,-0.189 0,0 0,0 0,0 z"
     id="path20-7" /><path
     style="fill:#004e29;stroke-width:1.33333"
     inkscape:connector-curvature="0"
     d="m 118.08,23016.615 v -6.375 c 0,0 0,0 0,0 -0.26267,0 -0.50134,-0.08 -0.72133,-0.19 v 6.754 c 0.21999,-0.112 0.45866,-0.189 0.72133,-0.189 0,0 0,0 0,0 z"
     id="path22-0" /><path
     style="fill:#004e29;stroke-width:1.33333"
     inkscape:connector-curvature="0"
     d="m 118.08,23026.215 v -6.375 c 0,0 0,0 0,0 -0.26267,0 -0.50134,-0.08 -0.72133,-0.19 v 6.754 c 0.21999,-0.112 0.45866,-0.189 0.72133,-0.189 0,0 0,0 0,0 z"
     id="path24-0" /><path
     style="fill:#004e29;stroke-width:1.33333"
     inkscape:connector-curvature="0"
     d="m 118.08,23035.815 v -6.375 c 0,0 0,0 0,0 -0.26267,0 -0.50134,-0.08 -0.72133,-0.19 v 6.754 c 0.21999,-0.112 0.45866,-0.189 0.72133,-0.189 0,0 0,0 0,0 z"
     id="path26-5" /><path
     style="fill:#004e29;stroke-width:1.33333"
     inkscape:connector-curvature="0"
     d="m 118.08,23045.415 v -6.375 c 0,0 0,0 0,0 -0.26267,0 -0.50134,-0.08 -0.72133,-0.19 v 6.754 c 0.21999,-0.112 0.45866,-0.189 0.72133,-0.189 0,0 0,0 0,0 z"
     id="path28-8" /><path
     style="fill:#004e29;stroke-width:1.33333"
     inkscape:connector-curvature="0"
     d="m 118.08,23055.015 v -6.375 c 0,0 0,0 0,0 -0.26267,0 -0.50134,-0.08 -0.72133,-0.19 v 6.754 c 0.21999,-0.112 0.45866,-0.189 0.72133,-0.189 0,0 0,0 0,0 z"
     id="path30-2" /><path
     style="fill:#004e29;stroke-width:1.33333"
     inkscape:connector-curvature="0"
     d="m 118.08,23064.615 v -6.375 c 0,0 0,0 0,0 -0.26267,0 -0.50134,-0.08 -0.72133,-0.19 v 6.754 c 0.21999,-0.112 0.45866,-0.189 0.72133,-0.189 0,0 0,0 0,0 z"
     id="path32-9" /><path
     style="fill:#004e29;stroke-width:1.33333"
     inkscape:connector-curvature="0"
     d="m 118.08,23074.215 v -6.375 c 0,0 0,0 0,0 -0.26267,0 -0.50134,-0.08 -0.72133,-0.19 v 6.754 c 0.21999,-0.112 0.45866,-0.189 0.72133,-0.189 0,0 0,0 0,0 z"
     id="path34-0" /><path
     style="fill:#004e29;stroke-width:1.33333"
     inkscape:connector-curvature="0"
     d="m 118.08,23083.815 v -6.375 c 0,0 0,0 0,0 -0.26267,0 -0.50134,-0.08 -0.72133,-0.19 v 6.754 c 0.21999,-0.112 0.45866,-0.189 0.72133,-0.189 0,0 0,0 0,0 z"
     id="path36-8" /><path
     style="fill:#004e29;stroke-width:1.33333"
     inkscape:connector-curvature="0"
     d="m 118.08,23093.415 v -6.375 c 0,0 0,0 0,0 -0.26267,0 -0.50134,-0.08 -0.72133,-0.19 v 6.754 c 0.21999,-0.112 0.45866,-0.189 0.72133,-0.189 0,0 0,0 0,0 z"
     id="path38-8" /><path
     style="fill:#004e29;stroke-width:1.33333"
     inkscape:connector-curvature="0"
     d="m 118.08,23103.015 v -6.375 c 0,0 0,0 0,0 -0.26267,0 -0.50134,-0.08 -0.72133,-0.19 v 6.754 c 0.21999,-0.112 0.45866,-0.189 0.72133,-0.189 0,0 0,0 0,0 z"
     id="path40-8" /><path
     style="fill:#004e29;stroke-width:1.33333"
     inkscape:connector-curvature="0"
     d="m 118.08,23112.615 v -6.375 c 0,0 0,0 0,0 -0.26267,0 -0.50134,-0.08 -0.72133,-0.19 v 6.754 c 0.21999,-0.112 0.45866,-0.189 0.72133,-0.189 0,0 0,0 0,0 z"
     id="path42-3" /><path
     style="fill:#004e29;stroke-width:1.33333"
     inkscape:connector-curvature="0"
     d="m 118.08,23122.215 v -6.375 c 0,0 0,0 0,0 -0.26267,0 -0.50134,-0.08 -0.72133,-0.19 v 6.754 c 0.21999,-0.112 0.45866,-0.189 0.72133,-0.189 0,0 0,0 0,0 z"
     id="path44-2" /><path
     style="fill:#004e29;stroke-width:1.33333"
     inkscape:connector-curvature="0"
     d="m 118.08,23131.815 v -6.375 c 0,0 0,0 0,0 -0.26267,0 -0.50134,-0.08 -0.72133,-0.19 v 6.754 c 0.21999,-0.112 0.45866,-0.189 0.72133,-0.189 0,0 0,0 0,0 z"
     id="path46-9" /><path
     style="fill:#004e29;stroke-width:1.33333"
     inkscape:connector-curvature="0"
     d="m 118.08,23141.414 v -6.374 c 0,0 0,0 0,0 -0.26267,0 -0.50134,-0.08 -0.72133,-0.19 v 6.753 c 0.21999,-0.112 0.45866,-0.189 0.72133,-0.189 0,0 0,0 0,0 z"
     id="path48-4" /><path
     style="fill:#004e29;stroke-width:1.33333"
     inkscape:connector-curvature="0"
     d="m 118.08,23144.639 c 0,0 0,0 0,0 -0.26267,0 -0.50134,-0.08 -0.72133,-0.191 v 2.103 c 0,0.521 -0.42267,0.945 -0.94534,0.945 H 89.41855 c 0.112004,0.22 0.190666,0.459 0.190666,0.722 0,0 0,0 0,0 h 26.960114 c 0.83467,0 1.512,-0.678 1.512,-1.512 v -2.067 z"
     id="path50-4" /><path
     style="fill:#004e29;stroke-width:1.33333"
     inkscape:connector-curvature="0"
     d="m 70.218468,23147.495 c 0.112,0.22 0.190668,0.459 0.190668,0.721 0,0 0,0 0,0 h 6.373361 c 0,0 0,0 0,0 0,-0.262 0.07866,-0.501 0.190665,-0.721 z"
     id="path52-5" /><path
     style="fill:#004e29;stroke-width:1.33333"
     inkscape:connector-curvature="0"
     d="m 79.817171,23147.495 c 0.112003,0.22 0.190675,0.459 0.190675,0.721 0,0 0,0 0,0 h 6.376021 c 0,0 0,0 0,0 0,-0.262 0.07867,-0.501 0.190675,-0.721 z"
     id="path54-4" /><path
     style="fill:#004e29;stroke-width:1.33333"
     inkscape:connector-curvature="0"
     id="path56-1"
     d="m 117.63733,22955.903 -0.556,0.555 c 0.17066,0.17 0.27734,0.406 0.27734,0.668 v 2.077 c 0.21999,-0.112 0.45866,-0.191 0.72133,-0.191 0,0 0,0 0,0 v -2.04 c 0,-0.417 -0.168,-0.794 -0.44267,-1.069 z" /><path
     style="fill:#004e29;stroke-width:1.33333"
     inkscape:connector-curvature="0"
     id="path62-3"
     d="M 67.373123,23147.495 H 40.37701 c -0.261335,0 -0.497336,-0.105 -0.668003,-0.277 l -0.556002,0.554 c 0.273334,0.274 0.652003,0.443 1.069337,0.443 h 26.961447 c 0,0 0,0 0,0 -0.0013,-0.261 0.07733,-0.5 0.189334,-0.72 z" /><path
     style="fill:#006837;stroke-width:1.33333"
     inkscape:connector-curvature="0"
     id="path66-3"
     d="m 39.426973,22957.129 v 2.077 c 0.52267,0.267 0.892,0.796 0.892,1.423 0,0.627 -0.36933,1.156 -0.892,1.423 v 6.757 c 0.52267,0.267 0.892,0.796 0.892,1.423 0,0.626 -0.36933,1.156 -0.892,1.422 v 6.756 c 0.52267,0.267 0.892,0.796 0.892,1.423 0,0.627 -0.36933,1.156 -0.892,1.423 v 6.754 c 0.52267,0.267 0.892,0.796 0.892,1.423 0,0.627 -0.36933,1.156 -0.892,1.423 v 6.753 c 0.52267,0.267 0.892,0.796 0.892,1.423 0,0.626 -0.36933,1.156 -0.892,1.422 v 6.755 c 0.52267,0.267 0.892,0.796 0.892,1.423 0,0.626 -0.36933,1.156 -0.892,1.422 v 6.755 c 0.52267,0.267 0.892,0.796 0.892,1.423 0,0.626 -0.36933,1.156 -0.892,1.422 v 6.755 c 0.52267,0.267 0.892,0.796 0.892,1.423 0,0.626 -0.36933,1.156 -0.892,1.422 v 6.755 c 0.52267,0.267 0.892,0.796 0.892,1.423 0,0.626 -0.36933,1.156 -0.892,1.422 v 6.755 c 0.52267,0.267 0.892,0.796 0.892,1.423 0,0.626 -0.36933,1.156 -0.892,1.422 v 6.755 c 0.52267,0.267 0.892,0.796 0.892,1.423 0,0.626 -0.36933,1.156 -0.892,1.422 v 6.755 c 0.52267,0.267 0.892,0.796 0.892,1.423 0,0.626 -0.36933,1.156 -0.892,1.422 v 6.755 c 0.52267,0.267 0.892,0.796 0.892,1.423 0,0.626 -0.36933,1.156 -0.892,1.422 v 6.755 c 0.52267,0.267 0.892,0.796 0.892,1.423 0,0.626 -0.36933,1.156 -0.892,1.422 v 6.755 c 0.52267,0.267 0.892,0.796 0.892,1.423 0,0.626 -0.36933,1.156 -0.892,1.422 v 6.755 c 0.52267,0.267 0.892,0.796 0.892,1.423 0,0.626 -0.36933,1.156 -0.892,1.422 v 6.755 c 0.52267,0.267 0.892,0.796 0.892,1.423 0,0.626 -0.36933,1.156 -0.892,1.422 v 6.755 c 0.52267,0.267 0.892,0.796 0.892,1.423 0,0.626 -0.36933,1.156 -0.892,1.422 v 6.755 c 0.52267,0.267 0.892,0.796 0.892,1.423 0,0.626 -0.36933,1.156 -0.892,1.422 v 6.754 c 0.52267,0.266 0.892,0.796 0.892,1.422 0,0.627 -0.36933,1.156 -0.892,1.423 v 2.103 c 0,0.521 0.42267,0.945 0.94533,0.945 h 26.99612 c 0.26667,-0.523 0.796,-0.892 1.42267,-0.892 0.62667,0 1.156,0.369 1.42267,0.892 h 6.75336 c 0.26667,-0.523 0.79601,-0.892 1.42267,-0.892 0.62667,0 1.15601,0.369 1.42268,0.892 h 6.75603 c 0.26667,-0.523 0.796,-0.892 1.42267,-0.892 0.62667,0 1.15601,0.369 1.42267,0.892 h 26.996107 c 0.52134,0 0.94533,-0.423 0.94533,-0.945 v -2.103 c -0.52266,-0.267 -0.892,-0.796 -0.892,-1.423 0,-0.626 0.36934,-1.156 0.892,-1.422 v -6.754 c -0.52266,-0.266 -0.892,-0.796 -0.892,-1.422 0,-0.627 0.36934,-1.156 0.892,-1.423 v -6.755 c -0.52266,-0.266 -0.892,-0.796 -0.892,-1.422 0,-0.627 0.36934,-1.156 0.892,-1.423 v -6.755 c -0.52266,-0.266 -0.892,-0.796 -0.892,-1.422 0,-0.627 0.36934,-1.156 0.892,-1.423 v -6.755 c -0.52266,-0.266 -0.892,-0.796 -0.892,-1.422 0,-0.627 0.36934,-1.156 0.892,-1.423 v -6.755 c -0.52266,-0.266 -0.892,-0.796 -0.892,-1.422 0,-0.627 0.36934,-1.156 0.892,-1.423 v -6.755 c -0.52266,-0.266 -0.892,-0.796 -0.892,-1.422 0,-0.627 0.36934,-1.156 0.892,-1.423 v -6.755 c -0.52266,-0.266 -0.892,-0.796 -0.892,-1.422 0,-0.627 0.36934,-1.156 0.892,-1.423 v -6.755 c -0.52266,-0.266 -0.892,-0.796 -0.892,-1.422 0,-0.627 0.36934,-1.156 0.892,-1.423 v -6.755 c -0.52266,-0.266 -0.892,-0.796 -0.892,-1.422 0,-0.627 0.36934,-1.156 0.892,-1.423 v -6.755 c -0.52266,-0.266 -0.892,-0.796 -0.892,-1.422 0,-0.627 0.36934,-1.156 0.892,-1.423 v -6.755 c -0.52266,-0.266 -0.892,-0.796 -0.892,-1.422 0,-0.627 0.36934,-1.156 0.892,-1.423 v -6.755 c -0.52266,-0.266 -0.892,-0.796 -0.892,-1.422 0,-0.627 0.36934,-1.156 0.892,-1.423 v -6.755 c -0.52266,-0.266 -0.892,-0.796 -0.892,-1.422 0,-0.627 0.36934,-1.156 0.892,-1.423 v -6.755 c -0.52266,-0.266 -0.892,-0.796 -0.892,-1.422 0,-0.627 0.36934,-1.156 0.892,-1.423 v -6.755 c -0.52266,-0.266 -0.892,-0.796 -0.892,-1.422 0,-0.627 0.36934,-1.156 0.892,-1.423 v -6.753 c -0.52266,-0.267 -0.892,-0.796 -0.892,-1.423 0,-0.627 0.36934,-1.156 0.892,-1.423 v -6.754 c -0.52266,-0.267 -0.892,-0.796 -0.892,-1.423 0,-0.627 0.36934,-1.156 0.892,-1.423 v -6.756 c -0.52266,-0.266 -0.892,-0.796 -0.892,-1.422 0,-0.627 0.36934,-1.156 0.892,-1.423 v -6.756 c -0.52266,-0.267 -0.892,-0.796 -0.892,-1.423 0,-0.626 0.36934,-1.156 0.892,-1.422 v -2.079 c 0,-0.521 -0.42266,-0.945 -0.94533,-0.945 H 40.372303 c -0.52266,0 -0.94533,0.424 -0.94533,0.945 z m 5.36402,187.495 c -0.88,0 -1.59601,-0.716 -1.59601,-1.596 0,-0.88 0.71601,-1.596 1.59601,-1.596 0.88,0 1.59601,0.716 1.59601,1.596 0,0.88 -0.71601,1.596 -1.59601,1.596 z m 1.59601,-11.195 c 0,0.88 -0.71601,1.596 -1.59601,1.596 -0.88,0 -1.59601,-0.716 -1.59601,-1.596 0,-0.88 0.71601,-1.596 1.59601,-1.596 0.88,0 1.59601,0.716 1.59601,1.596 z m 0,-9.6 c 0,0.88 -0.71601,1.596 -1.59601,1.596 -0.88,0 -1.59601,-0.716 -1.59601,-1.596 0,-0.88 0.71601,-1.596 1.59601,-1.596 0.88,0 1.59601,0.716 1.59601,1.596 z m 0,-9.6 c 0,0.88 -0.71601,1.596 -1.59601,1.596 -0.88,0 -1.59601,-0.716 -1.59601,-1.596 0,-0.88 0.71601,-1.596 1.59601,-1.596 0.88,0 1.59601,0.716 1.59601,1.596 z m 0,-9.6 c 0,0.88 -0.71601,1.596 -1.59601,1.596 -0.88,0 -1.59601,-0.716 -1.59601,-1.596 0,-0.88 0.71601,-1.596 1.59601,-1.596 0.88,0 1.59601,0.716 1.59601,1.596 z m 0,-9.6 c 0,0.88 -0.71601,1.596 -1.59601,1.596 -0.88,0 -1.59601,-0.716 -1.59601,-1.596 0,-0.88 0.71601,-1.596 1.59601,-1.596 0.88,0 1.59601,0.717 1.59601,1.596 z m 0,-9.6 c 0,0.88 -0.71601,1.596 -1.59601,1.596 -0.88,0 -1.59601,-0.716 -1.59601,-1.596 0,-0.88 0.71601,-1.596 1.59601,-1.596 0.88,0 1.59601,0.717 1.59601,1.596 z m 0,-9.6 c 0,0.88 -0.71601,1.596 -1.59601,1.596 -0.88,0 -1.59601,-0.716 -1.59601,-1.596 0,-0.88 0.71601,-1.596 1.59601,-1.596 0.88,0 1.59601,0.716 1.59601,1.596 z m 0,-9.6 c 0,0.88 -0.71601,1.596 -1.59601,1.596 -0.88,0 -1.59601,-0.716 -1.59601,-1.596 0,-0.88 0.71601,-1.596 1.59601,-1.596 0.88,0 1.59601,0.716 1.59601,1.596 z m 0,-9.6 c 0,0.88 -0.71601,1.596 -1.59601,1.596 -0.88,0 -1.59601,-0.716 -1.59601,-1.596 0,-0.88 0.71601,-1.596 1.59601,-1.596 0.88,0 1.59601,0.716 1.59601,1.596 z m 0,-9.6 c 0,0.88 -0.71601,1.596 -1.59601,1.596 -0.88,0 -1.59601,-0.716 -1.59601,-1.596 0,-0.88 0.71601,-1.596 1.59601,-1.596 0.88,0 1.59601,0.717 1.59601,1.596 z m 0,-9.6 c 0,0.88 -0.71601,1.596 -1.59601,1.596 -0.88,0 -1.59601,-0.716 -1.59601,-1.596 0,-0.88 0.71601,-1.596 1.59601,-1.596 0.88,0 1.59601,0.717 1.59601,1.596 z m 0,-9.6 c 0,0.88 -0.71601,1.596 -1.59601,1.596 -0.88,0 -1.59601,-0.716 -1.59601,-1.596 0,-0.88 0.71601,-1.596 1.59601,-1.596 0.88,0 1.59601,0.716 1.59601,1.596 z m 0,-9.6 c 0,0.88 -0.71601,1.596 -1.59601,1.596 -0.88,0 -1.59601,-0.716 -1.59601,-1.596 0,-0.88 0.71601,-1.596 1.59601,-1.596 0.88,0 1.59601,0.716 1.59601,1.596 z m 0,-9.6 c 0,0.88 -0.71601,1.596 -1.59601,1.596 -0.88,0 -1.59601,-0.716 -1.59601,-1.596 0,-0.88 0.71601,-1.596 1.59601,-1.596 0.88,0 1.59601,0.716 1.59601,1.596 z m 0,-9.6 c 0,0.88 -0.71601,1.596 -1.59601,1.596 -0.88,0 -1.59601,-0.716 -1.59601,-1.596 0,-0.88 0.71601,-1.596 1.59601,-1.596 0.88,0 1.59601,0.717 1.59601,1.596 z m 0,-9.599 c 0,0.88 -0.71601,1.596 -1.59601,1.596 -0.88,0 -1.59601,-0.716 -1.59601,-1.596 0,-0.88 0.71601,-1.596 1.59601,-1.596 0.88,0 1.59601,0.716 1.59601,1.596 z m 0,-9.598 c 0,0.88 -0.71601,1.596 -1.59601,1.596 -0.88,0 -1.59601,-0.716 -1.59601,-1.596 0,-0.88 0.71601,-1.596 1.59601,-1.596 0.88,0 1.59601,0.716 1.59601,1.596 z m 0,-9.602 c 0,0.88 -0.71601,1.596 -1.59601,1.596 -0.88,0 -1.59601,-0.716 -1.59601,-1.596 0,-0.88 0.71601,-1.596 1.59601,-1.596 0.88,0 1.59601,0.718 1.59601,1.596 z m 0,-9.601 c 0,0.88 -0.71601,1.596 -1.59601,1.596 -0.88,0 -1.59601,-0.716 -1.59601,-1.596 0,-0.88 0.71601,-1.596 1.59601,-1.596 0.88,0 1.59601,0.716 1.59601,1.596 z m 10.48004,183.205 c -1.85201,0 -3.35868,-1.506 -3.35868,-3.36 0,-1.853 1.50667,-3.36 3.35868,-3.36 1.85201,0 3.35868,1.507 3.35868,3.36 0,1.854 -1.50667,3.36 -3.35868,3.36 z m 0,-177.266 c -1.85201,0 -3.35868,-1.507 -3.35868,-3.36 0,-1.854 1.50667,-3.359 3.35868,-3.359 1.85201,0 3.35868,1.507 3.35868,3.359 0,1.852 -1.50667,3.36 -3.35868,3.36 z m 11.92405,178.054 c -0.88,0 -1.59601,-0.716 -1.59601,-1.596 0,-0.88 0.71601,-1.596 1.59601,-1.596 0.88,0 1.59601,0.716 1.59601,1.596 0,0.88 -0.71601,1.596 -1.59601,1.596 z m 9.5987,0 c -0.88,0 -1.596,-0.716 -1.596,-1.596 0,-0.88 0.716,-1.596 1.596,-1.596 0.88001,0 1.59601,0.716 1.59601,1.596 0,0.88 -0.716,1.596 -1.59601,1.596 z m 32.005457,-1.594 c 0,-0.88 0.71601,-1.596 1.59601,-1.596 0.88001,0 1.59601,0.716 1.59601,1.596 0,0.88 -0.716,1.596 -1.59601,1.596 -0.88,0 -1.59601,-0.716 -1.59601,-1.596 z m 0,-9.599 c 0,-0.88 0.71601,-1.596 1.59601,-1.596 0.88001,0 1.59601,0.716 1.59601,1.596 0,0.88 -0.716,1.596 -1.59601,1.596 -0.88,0 -1.59601,-0.716 -1.59601,-1.596 z m 0,-9.6 c 0,-0.88 0.71601,-1.596 1.59601,-1.596 0.88001,0 1.59601,0.716 1.59601,1.596 0,0.88 -0.716,1.596 -1.59601,1.596 -0.88,0 -1.59601,-0.716 -1.59601,-1.596 z m 0,-9.6 c 0,-0.88 0.71601,-1.596 1.59601,-1.596 0.88001,0 1.59601,0.716 1.59601,1.596 0,0.88 -0.716,1.596 -1.59601,1.596 -0.88,0 -1.59601,-0.716 -1.59601,-1.596 z m 0,-9.6 c 0,-0.88 0.71601,-1.596 1.59601,-1.596 0.88001,0 1.59601,0.716 1.59601,1.596 0,0.88 -0.716,1.596 -1.59601,1.596 -0.88,0 -1.59601,-0.716 -1.59601,-1.596 z m 0,-9.6 c 0,-0.88 0.71601,-1.596 1.59601,-1.596 0.88001,0 1.59601,0.716 1.59601,1.596 0,0.88 -0.716,1.596 -1.59601,1.596 -0.88,0 -1.59601,-0.716 -1.59601,-1.596 z m 0,-9.6 c 0,-0.88 0.71601,-1.596 1.59601,-1.596 0.88001,0 1.59601,0.716 1.59601,1.596 0,0.88 -0.716,1.596 -1.59601,1.596 -0.88,0 -1.59601,-0.716 -1.59601,-1.596 z m 0,-9.6 c 0,-0.88 0.71601,-1.596 1.59601,-1.596 0.88001,0 1.59601,0.716 1.59601,1.596 0,0.88 -0.716,1.596 -1.59601,1.596 -0.88,0 -1.59601,-0.716 -1.59601,-1.596 z m 0,-9.6 c 0,-0.88 0.71601,-1.596 1.59601,-1.596 0.88001,0 1.59601,0.716 1.59601,1.596 0,0.88 -0.716,1.596 -1.59601,1.596 -0.88,0 -1.59601,-0.716 -1.59601,-1.596 z m 0,-9.6 c 0,-0.88 0.71601,-1.596 1.59601,-1.596 0.88001,0 1.59601,0.716 1.59601,1.596 0,0.88 -0.716,1.596 -1.59601,1.596 -0.88,0 -1.59601,-0.716 -1.59601,-1.596 z m 0,-9.6 c 0,-0.88 0.71601,-1.596 1.59601,-1.596 0.88001,0 1.59601,0.716 1.59601,1.596 0,0.88 -0.716,1.596 -1.59601,1.596 -0.88,0 -1.59601,-0.716 -1.59601,-1.596 z m 0,-9.6 c 0,-0.88 0.71601,-1.596 1.59601,-1.596 0.88001,0 1.59601,0.716 1.59601,1.596 0,0.88 -0.716,1.596 -1.59601,1.596 -0.88,0 -1.59601,-0.716 -1.59601,-1.596 z m 0,-9.6 c 0,-0.88 0.71601,-1.596 1.59601,-1.596 0.88001,0 1.59601,0.716 1.59601,1.596 0,0.88 -0.716,1.596 -1.59601,1.596 -0.88,0 -1.59601,-0.716 -1.59601,-1.596 z m 0,-9.6 c 0,-0.88 0.71601,-1.596 1.59601,-1.596 0.88001,0 1.59601,0.716 1.59601,1.596 0,0.88 -0.716,1.596 -1.59601,1.596 -0.88,0 -1.59601,-0.716 -1.59601,-1.596 z m 0,-9.6 c 0,-0.88 0.71601,-1.596 1.59601,-1.596 0.88001,0 1.59601,0.716 1.59601,1.596 0,0.88 -0.716,1.596 -1.59601,1.596 -0.88,0 -1.59601,-0.716 -1.59601,-1.596 z m 0,-9.6 c 0,-0.88 0.71601,-1.596 1.59601,-1.596 0.88001,0 1.59601,0.716 1.59601,1.596 0,0.88 -0.716,1.596 -1.59601,1.596 -0.88,0 -1.59601,-0.716 -1.59601,-1.596 z m 0,-9.599 c 0,-0.88 0.71601,-1.596 1.59601,-1.596 0.88001,0 1.59601,0.716 1.59601,1.596 0,0.88 -0.716,1.596 -1.59601,1.596 -0.88,0 -1.59601,-0.716 -1.59601,-1.596 z m 0,-9.598 c 0,-0.88 0.71601,-1.596 1.59601,-1.596 0.88001,0 1.59601,0.716 1.59601,1.596 0,0.88 -0.716,1.596 -1.59601,1.596 -0.88,0 -1.59601,-0.716 -1.59601,-1.596 z m 0,-9.602 c 0,-0.88 0.71601,-1.596 1.59601,-1.596 0.88001,0 1.59601,0.716 1.59601,1.596 0,0.88 -0.716,1.596 -1.59601,1.596 -0.88,0 -1.59601,-0.716 -1.59601,-1.596 z m 0,-9.601 c 0,-0.88 0.71601,-1.596 1.59601,-1.596 0.88001,0 1.59601,0.716 1.59601,1.596 0,0.88 -0.716,1.596 -1.59601,1.596 -0.88,0 -1.59601,-0.716 -1.59601,-1.596 z m -22.404077,183.993 c -0.88,0 -1.59601,-0.716 -1.59601,-1.596 0,-0.88 0.71601,-1.596 1.59601,-1.596 0.88001,0 1.596,0.716 1.596,1.596 0,0.88 -0.71599,1.596 -1.596,1.596 z m 11.924051,-0.788 c -1.853344,0 -3.360011,-1.506 -3.360011,-3.36 0,-1.853 1.506667,-3.36 3.360011,-3.36 1.851996,0 3.358666,1.507 3.358666,3.36 0,1.854 -1.50667,3.36 -3.358666,3.36 z m 0,-177.266 c -1.853344,0 -3.360011,-1.507 -3.360011,-3.36 0,-1.854 1.506667,-3.359 3.360011,-3.359 1.851996,0 3.358666,1.507 3.358666,3.359 0,1.852 -1.50667,3.36 -3.358666,3.36 z" /><path
     style="fill:#33865f;stroke-width:1.33333"
     inkscape:connector-curvature="0"
     d="M 116.56933,22955.46 H 40.222342 c -0.834669,0 -1.512006,0.678 -1.512006,1.512 v 2.043 c 0,0 0,0 0,0 0.262668,0 0.501336,0.08 0.721336,0.191 v -2.079 c 0,-0.521 0.422669,-0.945 0.945338,-0.945 h 76.03765 c 0.26133,0 0.49734,0.105 0.668,0.277 l 0.556,-0.555 c -0.27467,-0.274 -0.652,-0.444 -1.06933,-0.444 z"
     id="path70-7" /><path
     style="fill:#33865f;stroke-width:1.33333"
     inkscape:connector-curvature="0"
     d="m 38.710336,22971.842 v 6.376 c 0,0 0,0 0,0 0.262668,0 0.501336,0.08 0.721336,0.19 v -6.756 c -0.22,0.111 -0.458668,0.19 -0.721336,0.19 0,0 0,0 0,0 z"
     id="path72-1" /><path
     style="fill:#33865f;stroke-width:1.33333"
     inkscape:connector-curvature="0"
     d="m 38.710336,22981.442 v 6.374 c 0,0 0,0 0,0 0.262668,0 0.501336,0.08 0.721336,0.191 v -6.755 c -0.22,0.112 -0.458668,0.19 -0.721336,0.19 0,0 0,0 0,0 z"
     id="path74-4" /><path
     style="fill:#33865f;stroke-width:1.33333"
     inkscape:connector-curvature="0"
     d="m 38.710336,22991.042 v 6.373 c 0,0 0,0 0,0 0.262668,0 0.501336,0.08 0.721336,0.191 v -6.754 c -0.22,0.111 -0.458668,0.19 -0.721336,0.19 0,0 0,0 0,0 z"
     id="path76-1" /><path
     style="fill:#33865f;stroke-width:1.33333"
     inkscape:connector-curvature="0"
     d="m 38.710336,23000.64 v 6.375 c 0,0 0,0 0,0 0.262668,0 0.501336,0.08 0.721336,0.191 v -6.755 c -0.22,0.111 -0.458668,0.189 -0.721336,0.189 0,0 0,0 0,0 z"
     id="path78-4" /><path
     style="fill:#33865f;stroke-width:1.33333"
     inkscape:connector-curvature="0"
     d="m 38.710336,23010.24 v 6.375 c 0,0 0,0 0,0 0.262668,0 0.501336,0.08 0.721336,0.191 v -6.755 c -0.22,0.111 -0.458668,0.189 -0.721336,0.189 0,0 0,0 0,0 z"
     id="path80-4" /><path
     style="fill:#33865f;stroke-width:1.33333"
     inkscape:connector-curvature="0"
     d="m 38.710336,23019.84 v 6.375 c 0,0 0,0 0,0 0.262668,0 0.501336,0.08 0.721336,0.191 v -6.755 c -0.22,0.111 -0.458668,0.189 -0.721336,0.189 0,0 0,0 0,0 z"
     id="path82-3" /><path
     style="fill:#33865f;stroke-width:1.33333"
     inkscape:connector-curvature="0"
     d="m 38.710336,23029.44 v 6.375 c 0,0 0,0 0,0 0.262668,0 0.501336,0.08 0.721336,0.191 v -6.755 c -0.22,0.111 -0.458668,0.189 -0.721336,0.189 0,0 0,0 0,0 z"
     id="path84-1" /><path
     style="fill:#33865f;stroke-width:1.33333"
     inkscape:connector-curvature="0"
     d="m 38.710336,23039.04 v 6.375 c 0,0 0,0 0,0 0.262668,0 0.501336,0.08 0.721336,0.191 v -6.755 c -0.22,0.111 -0.458668,0.189 -0.721336,0.189 0,0 0,0 0,0 z"
     id="path86-6" /><path
     style="fill:#33865f;stroke-width:1.33333"
     inkscape:connector-curvature="0"
     d="m 38.710336,23048.64 v 6.375 c 0,0 0,0 0,0 0.262668,0 0.501336,0.08 0.721336,0.191 v -6.755 c -0.22,0.111 -0.458668,0.189 -0.721336,0.189 0,0 0,0 0,0 z"
     id="path88-1" /><path
     style="fill:#33865f;stroke-width:1.33333"
     inkscape:connector-curvature="0"
     d="m 38.710336,23058.24 v 6.375 c 0,0 0,0 0,0 0.262668,0 0.501336,0.08 0.721336,0.191 v -6.755 c -0.22,0.111 -0.458668,0.189 -0.721336,0.189 0,0 0,0 0,0 z"
     id="path90-9" /><path
     style="fill:#33865f;stroke-width:1.33333"
     inkscape:connector-curvature="0"
     d="m 38.710336,23067.84 v 6.375 c 0,0 0,0 0,0 0.262668,0 0.501336,0.08 0.721336,0.191 v -6.755 c -0.22,0.111 -0.458668,0.189 -0.721336,0.189 0,0 0,0 0,0 z"
     id="path92-4" /><path
     style="fill:#33865f;stroke-width:1.33333"
     inkscape:connector-curvature="0"
     d="m 38.710336,23077.44 v 6.375 c 0,0 0,0 0,0 0.262668,0 0.501336,0.08 0.721336,0.191 v -6.755 c -0.22,0.111 -0.458668,0.189 -0.721336,0.189 0,0 0,0 0,0 z"
     id="path94-8" /><path
     style="fill:#33865f;stroke-width:1.33333"
     inkscape:connector-curvature="0"
     d="m 38.710336,23087.04 v 6.375 c 0,0 0,0 0,0 0.262668,0 0.501336,0.08 0.721336,0.191 v -6.755 c -0.22,0.111 -0.458668,0.189 -0.721336,0.189 0,0 0,0 0,0 z"
     id="path96-6" /><path
     style="fill:#33865f;stroke-width:1.33333"
     inkscape:connector-curvature="0"
     d="m 38.710336,23096.64 v 6.375 c 0,0 0,0 0,0 0.262668,0 0.501336,0.08 0.721336,0.191 v -6.755 c -0.22,0.111 -0.458668,0.189 -0.721336,0.189 0,0 0,0 0,0 z"
     id="path98-5" /><path
     style="fill:#33865f;stroke-width:1.33333"
     inkscape:connector-curvature="0"
     d="m 38.710336,23106.24 v 6.375 c 0,0 0,0 0,0 0.262668,0 0.501336,0.08 0.721336,0.191 v -6.755 c -0.22,0.111 -0.458668,0.189 -0.721336,0.189 0,0 0,0 0,0 z"
     id="path100-2" /><path
     style="fill:#33865f;stroke-width:1.33333"
     inkscape:connector-curvature="0"
     d="m 38.710336,23115.84 v 6.375 c 0,0 0,0 0,0 0.262668,0 0.501336,0.08 0.721336,0.191 v -6.755 c -0.22,0.111 -0.458668,0.189 -0.721336,0.189 0,0 0,0 0,0 z"
     id="path102-3" /><path
     style="fill:#33865f;stroke-width:1.33333"
     inkscape:connector-curvature="0"
     d="m 38.710336,23125.44 v 6.375 c 0,0 0,0 0,0 0.262668,0 0.501336,0.08 0.721336,0.191 v -6.755 c -0.22,0.111 -0.458668,0.189 -0.721336,0.189 0,0 0,0 0,0 z"
     id="path104-8" /><path
     style="fill:#33865f;stroke-width:1.33333"
     inkscape:connector-curvature="0"
     d="m 38.710336,23135.04 v 6.374 c 0,0 0,0 0,0 0.262668,0 0.501336,0.08 0.721336,0.19 v -6.753 c -0.22,0.111 -0.458668,0.189 -0.721336,0.189 0,0 0,0 0,0 z"
     id="path106-2" /><path
     style="fill:#33865f;stroke-width:1.33333"
     inkscape:connector-curvature="0"
     d="m 38.710336,22962.24 v 6.376 c 0,0 0,0 0,0 0.262668,0 0.501336,0.08 0.721336,0.191 v -6.757 c -0.22,0.112 -0.458668,0.19 -0.721336,0.19 0,0 0,0 0,0 z"
     id="path108-7" /><path
     style="fill:#33865f;stroke-width:1.33333"
     inkscape:connector-curvature="0"
     d="m 39.153005,23147.774 0.556002,-0.555 c -0.170667,-0.171 -0.277335,-0.407 -0.277335,-0.668 v -2.101 c -0.22,0.112 -0.458668,0.19 -0.721336,0.19 0,0 0,2.067 0,2.067 0,0.415 0.169335,0.793 0.442669,1.067 z"
     id="path112-4" /><ellipse
     style="fill:none;stroke:#fcee21;stroke-width:2.66667"
     ry="4.6919999"
     rx="4.6920199"
     cy="23140.473"
     cx="56.871746"
     id="circle119-6" /><ellipse
     style="fill:none;stroke:#fcee21;stroke-width:2.66667"
     ry="4.6919999"
     rx="4.6920199"
     cy="23140.473"
     cx="99.918594"
     id="circle125-9" /><ellipse
     style="fill:none;stroke:#fcee21;stroke-width:2.66667"
     ry="4.6919999"
     rx="4.6920199"
     cy="22963.205"
     cx="56.871746"
     id="circle131-2" /><ellipse
     style="fill:none;stroke:#fcee21;stroke-width:2.66667"
     ry="4.6919999"
     rx="4.6920199"
     cy="22963.205"
     cx="99.918594"
     id="circle137-0" /><rect
     style="fill:#30312e;stroke-width:1.33333"
     height="26.632002"
     id="Pico_2040_1_-4"
     gorn="0.1.1.2"
     y="23038.523"
     x="65.079781"
     width="26.632114" /><path
     style="fill:#363a44;stroke-width:1.33333"
     inkscape:connector-curvature="0"
     d="M 90.867891,22970.58 H 65.92245 c -0.417335,0 -0.756002,-0.338 -0.756002,-0.756 v -18.581 c 0,-0.417 0.338667,-0.756 0.756002,-0.756 h 24.945441 c 0.417331,0 0.756,0.339 0.756,0.756 v 18.581 c 0,0.418 -0.338669,0.756 -0.756,0.756 z"
     id="path145-6" /><path
     style="fill:#dbddda;stroke-width:1.33333"
     inkscape:connector-curvature="0"
     id="path147-2"
     d="m 67.061122,22947.902 c -0.333335,0 -0.626669,0.218 -0.724004,0.537 l -0.414668,1.373 -0.756002,0.756 v 19.256 c 0,0.418 0.338667,0.756 0.756002,0.756 h 4.613348 c 0.209337,0 0.377337,-0.169 0.377337,-0.377 v -1.104 c 0,-0.276 -0.150662,-0.531 -0.393331,-0.663 l -2.568011,-1.402 c -0.242668,-0.132 -0.393336,-0.387 -0.393336,-0.663 v -1.103 h 1.677341 v -1.273 h 2.592006 v 1.271 h 1.525343 v 2.628 c 0,0.417 0.338669,0.756 0.756,0.756 h 1.226678 v -1.363 h 6.118693 v 1.363 h 1.226668 c 0.417331,0 0.756,-0.339 0.756,-0.756 v -2.628 h 1.525343 v -1.271 h 2.592009 v 1.271 h 1.67734 v 1.102 c 0,0.276 -0.150662,0.531 -0.393331,0.663 l -2.568008,1.404 c -0.242669,0.132 -0.393341,0.387 -0.393341,0.663 v 1.104 c 0,0.209 0.169334,0.377 0.377337,0.377 h 4.613356 c 0.417331,0 0.756,-0.339 0.756,-0.756 v -19.255 l -0.756,-0.756 -0.414672,-1.373 c -0.09733,-0.319 -0.390662,-0.537 -0.724003,-0.537 z" /><path
     style="fill:#dbddda;stroke-width:1.33333"
     inkscape:connector-curvature="0"
     d="m 65.995784,22951.746 c -0.332002,-0.443 -0.669336,-0.89 -0.972004,-1.4 -0.309335,-0.506 -0.533335,-1.108 -0.641336,-1.672 l -0.0027,-0.02 c -0.048,-0.245 0.113334,-0.482 0.358668,-0.529 0.228001,-0.04 0.449336,0.09 0.517336,0.309 0.298668,0.964 0.984004,1.654 1.749341,2.436 0.260001,0.262 0.258668,0.686 -0.0027,0.946 -0.261334,0.26 -0.685336,0.258 -0.945337,0 -0.02,-0.02 -0.044,-0.05 -0.06133,-0.07 z"
     id="path151-5" /><path
     style="fill:#dbddda;stroke-width:1.33333"
     inkscape:connector-curvature="0"
     d="m 89.786547,22950.872 c 0.766675,-0.782 1.450675,-1.472 1.74934,-2.436 0.07467,-0.238 0.328003,-0.372 0.566669,-0.297 0.221338,0.07 0.352003,0.293 0.310675,0.516 l -0.004,0.02 c -0.109334,0.562 -0.332006,1.166 -0.641337,1.672 -0.302669,0.51 -0.640003,0.957 -0.97201,1.4 -0.221328,0.294 -0.640003,0.354 -0.935999,0.133 -0.294672,-0.221 -0.354672,-0.64 -0.133335,-0.936 0.016,-0.02 0.04,-0.05 0.06,-0.07 z"
     id="path153-8" /><path
     style="fill:#dbddda;stroke-width:1.33333"
     inkscape:connector-curvature="0"
     d="m 70.417154,23083.207 h -9.826709 c -0.417335,0 -0.756004,-0.339 -0.756004,-0.756 v -6.047 c 0,-0.417 0.338669,-0.756 0.756004,-0.756 h 9.826709 c 0.417331,0 0.755999,0.339 0.755999,0.756 v 6.047 c 0,0.417 -0.338668,0.756 -0.755999,0.756 z"
     id="path156-4" /><rect
     style="fill:#2a2d2e;stroke-width:1.33333"
     transform="rotate(90)"
     id="rect158-7"
     height="7.5586982"
     y="-67.869797"
     x="23020.301"
     width="11.338667" /><rect
     style="fill:#2a2d2e;stroke-width:1.33333"
     transform="rotate(90)"
     id="rect170-3"
     height="9.4493732"
     y="-93.810699"
     x="22990.373"
     width="9.4493332" /><rect
     style="fill:#2a2d2e;stroke-width:1.33333"
     transform="rotate(90)"
     id="rect182-1"
     height="5.6693568"
     y="-103.66595"
     x="22974.021"
     width="9.4493332" /><rect
     style="fill:#ecf6fd;stroke-width:1.33333"
     transform="rotate(90)"
     id="rect194-3"
     height="5.6693568"
     y="-59.675762"
     x="22970.58"
     width="3.78" /><path
     style="fill:#cccccc;stroke-width:1.33333"
     inkscape:connector-curvature="0"
     id="path206-3"
     d="m 60.166426,22991.682 h 9.826708 c 0.417335,0 0.756005,0.338 0.756005,0.756 v 13.606 c 0,0.418 -0.33867,0.756 -0.756005,0.756 h -9.826708 c -0.417334,0 -0.756003,-0.338 -0.756003,-0.756 v -13.606 c 0,-0.418 0.338669,-0.756 0.756003,-0.756 z" /><path
     style="fill:#ffffff;stroke-width:1.33333"
     inkscape:connector-curvature="0"
     id="path208-5"
     d="m 65.07978,22992.627 v 0 c 2.609344,0 4.72402,2.115 4.72402,4.724 v 3.78 c 0,2.609 -2.114676,4.724 -4.72402,4.724 v 0 c -2.609344,0 -4.72402,-2.115 -4.72402,-4.724 v -3.78 c 0,-2.609 2.114676,-4.724 4.72402,-4.724 z" /><path
     style="fill:#ffffff;stroke-width:1.33333"
     inkscape:connector-curvature="0"
     id="path210-4"
     d="m 59.410423,22992.438 v 1.42 c 0,0.673 0.81467,1.01 1.290672,0.534 l 1.420006,-1.42 c 0.476002,-0.476 0.138667,-1.29 -0.534669,-1.29 h -1.420006 c -0.417334,0 -0.756003,0.338 -0.756003,0.756 z" /><path
     style="fill:#ffffff;stroke-width:1.33333"
     inkscape:connector-curvature="0"
     id="path212-9"
     d="m 69.993134,22991.682 h -1.420006 c -0.673336,0 -1.010671,0.814 -0.534668,1.29 l 1.420005,1.42 c 0.476003,0.476 1.290674,0.139 1.290674,-0.534 v -1.42 c 0,-0.418 -0.33867,-0.756 -0.756005,-0.756 z" /><path
     style="fill:#ffffff;stroke-width:1.33333"
     inkscape:connector-curvature="0"
     id="path214-1"
     d="m 70.749139,23006.004 v -1.42 c 0,-0.673 -0.814671,-1.01 -1.290674,-0.534 l -1.420005,1.42 c -0.476003,0.476 -0.138668,1.29 0.534668,1.29 h 1.420006 c 0.417335,0 0.756005,-0.338 0.756005,-0.756 z" /><path
     style="fill:#ffffff;stroke-width:1.33333"
     inkscape:connector-curvature="0"
     id="path216-3"
     d="m 60.166426,23006.76 h 1.420006 c 0.673336,0 1.010671,-0.814 0.534669,-1.29 l -1.420006,-1.42 c -0.476002,-0.476 -1.290672,-0.139 -1.290672,0.534 v 1.42 c 0,0.418 0.338669,0.756 0.756003,0.756 z" /><path
     style="fill:#2a2d2e;stroke-width:1.33333"
     inkscape:connector-curvature="0"
     d="m 97.051911,22999.066 v -7.938 c 0,-0.417 0.338669,-0.756 0.75601,-0.756 h 6.046689 c 0.41733,0 0.756,0.339 0.756,0.756 v 7.938 c 0,0.417 -0.33867,0.756 -0.756,0.756 h -6.046689 c -0.417341,0 -0.75601,-0.339 -0.75601,-0.756 z"
     id="path220-1" /><ellipse
     style="fill:#33cc33;stroke-width:1.33333"
     ry="0.9453333"
     rx="0.94533724"
     cy="22972.57"
     cx="55.969074"
     id="circle222-6" /><rect
     style="fill:#dbddda;stroke-width:1.33333"
     transform="rotate(-90)"
     id="rect224-5"
     height="7.5586982"
     y="85.30587"
     x="-23007.164"
     width="5.6693335" /><rect
     style="fill:#dbddda;stroke-width:1.33333"
     transform="rotate(-90)"
     id="rect240-9"
     height="7.5586982"
     y="85.30706"
     x="-22988.596"
     width="5.6693335" /><rect
     style="fill:#958863;stroke-width:1.33333"
     transform="rotate(-90)"
     id="rect252-6"
     height="5.6693568"
     y="86.251068"
     x="-22988.596"
     width="5.6693335" /><rect
     style="fill:#958863;stroke-width:1.33333"
     transform="rotate(-90)"
     id="rect264-7"
     height="5.6693568"
     y="86.251205"
     x="-23007.164"
     width="5.6693335" /><ellipse
     style="fill:#9a916c;stroke-width:1.33333"
     ry="1.5960001"
     rx="1.5960066"
     cy="22982.848"
     cx="56.621078"
     id="circle276-8" /><ellipse
     style="fill:#9a916c;stroke-width:1.33333"
     ry="1.5960001"
     rx="1.5960066"
     cy="23125.424"
     cx="101.21861"
     id="circle278-9" /><path
     style="fill:#ffffff;stroke-width:0.917405"
     inkscape:connector-curvature="0"
     id="path1062-7"
     d="m 86.013218,23113.438 -0.188985,-0.284 c 0,-2.179 -0.99447,-3.03 -2.17793,-3.693 0.331183,-0.09 0.710077,-0.189 0.804566,-0.616 0.615583,-0.142 0.710078,-0.425 0.804574,-0.71 0.142192,-0.09 0.710072,-0.425 0.615576,-0.9 0.284398,-0.189 0.473383,-0.473 0.378893,-0.852 0.331184,-0.331 0.425673,-0.615 0.284392,-0.9 0.378894,-0.473 0.236695,-0.71 0.04771,-0.994 0.284392,-0.521 0.04771,-1.089 -0.757782,-0.995 -0.331183,-0.474 -0.994469,-0.379 -1.136669,-0.379 -0.142199,-0.142 -0.284398,-0.284 -0.757781,-0.236 -0.331184,-0.285 -0.663286,-0.238 -1.041256,-0.1 -0.425679,-0.331 -0.710077,-0.05 -1.041261,0.05 -0.521087,-0.188 -0.663286,0.05 -0.899981,0.143 -0.567872,-0.143 -0.757774,0.141 -1.041255,0.425 h -0.331184 c -0.852277,0.522 -1.277957,1.514 -1.46786,2.035 -0.142198,-0.521 -0.567871,-1.561 -1.467852,-2.035 H 76.30795 c -0.284399,-0.284 -0.425681,-0.522 -1.041262,-0.425 -0.236689,-0.09 -0.378888,-0.331 -0.899975,-0.143 -0.236694,-0.05 -0.425679,-0.188 -0.663286,-0.188 v 0 c -0.142198,0 -0.236694,0.05 -0.425679,0.141 -0.378887,-0.141 -0.710075,-0.188 -1.041259,0.1 -0.473383,-0.05 -0.663287,0.05 -0.75778,0.236 -0.09449,0 -0.804567,-0.09 -1.13667,0.38 -0.804567,-0.1 -1.041259,0.472 -0.757779,0.994 -0.142198,0.237 -0.331185,0.474 0.04771,0.995 -0.142199,0.284 -0.04771,0.567 0.284397,0.899 -0.09449,0.379 0.09449,0.616 0.37889,0.853 -0.04771,0.521 0.473383,0.804 0.615581,0.9 0.04771,0.284 0.188986,0.568 0.804568,0.71 0.09449,0.425 0.473383,0.521 0.804568,0.615 -1.183458,0.663 -2.177929,1.562 -2.177929,3.693 l -0.188986,0.284 c -1.325656,0.805 -2.556819,3.362 -0.663288,5.492 0.142199,0.663 0.331185,1.136 0.521089,1.657 0.284397,2.083 2.083436,3.077 2.556819,3.219 0.710074,0.521 1.420146,0.994 2.414622,1.373 0.946766,0.947 1.941236,1.326 2.982491,1.326 h 0.04771 c 1.041255,0 2.035732,-0.379 2.982497,-1.326 0.99447,-0.331 1.751333,-0.852 2.41462,-1.373 0.473382,-0.09 2.272419,-1.089 2.556817,-3.219 0.188986,-0.521 0.378888,-0.995 0.521087,-1.657 2.081599,-2.132 0.898144,-4.688 -0.474301,-5.493 z m -0.99447,-0.379 c -0.04771,0.852 -4.59255,-3.031 -3.834768,-3.172 2.13022,-0.332 3.882472,0.9 3.834768,3.172 z m -2.035731,4.308 c -1.136669,0.758 -2.793506,0.285 -3.645784,-1.041 -0.899974,-1.326 -0.663286,-2.982 0.473383,-3.741 1.136669,-0.757 2.793514,-0.283 3.645784,1.042 0.899062,1.373 0.662368,3.03 -0.473383,3.74 z m -3.124697,-13.399 c 0.04771,0.189 0.09449,0.332 0.142199,0.332 0.236695,-0.285 0.473383,-0.569 0.757782,-0.805 0,0.143 -0.0945,0.331 0.09449,0.426 0.188985,-0.237 0.425674,-0.426 0.710071,-0.616 -0.142199,0.237 -0.04771,0.332 0.04771,0.426 0.236695,-0.189 0.473383,-0.426 0.89998,-0.568 -0.142198,0.142 -0.284398,0.284 -0.09449,0.474 0.236694,-0.143 0.473383,-0.285 1.088965,-0.426 -0.142199,0.142 -0.425673,0.284 -0.236688,0.426 0.331184,-0.09 0.663286,-0.19 1.041255,-0.237 -0.188984,0.142 -0.331183,0.284 -0.188984,0.425 0.331184,-0.09 0.804567,-0.237 1.231164,-0.141 l -0.284399,0.284 c -0.0477,0.05 0.663286,0.05 1.088966,0.05 -0.1422,0.237 -0.331184,0.473 -0.42568,0.853 0.04771,0.05 0.284399,0 0.473383,0 -0.236688,0.473 -0.615582,0.567 -0.663286,0.757 0.1422,0.1 0.331184,0.1 0.521087,0 -0.142193,0.332 -0.473383,0.522 -0.757774,0.805 0.04771,0.05 0.188984,0.09 0.473383,0.05 -0.236696,0.237 -0.521094,0.473 -0.852277,0.71 0.04771,0.05 0.284398,0.05 0.473383,0.1 -0.331185,0.284 -0.710072,0.473 -1.088966,0.663 0.188991,0.142 0.331191,0.09 0.473383,0.09 -0.284392,0.236 -0.710071,0.33 -1.136669,0.473 0.09449,0.141 0.1422,0.141 0.331184,0.188 -0.425673,0.237 -1.088959,0.143 -1.27795,0.237 0.04771,0.142 0.1422,0.189 0.331184,0.285 -0.710071,0.05 -2.651308,-0.05 -3.030201,-1.515 0.710078,-0.805 2.083435,-1.751 4.355861,-2.888 -1.799043,0.616 -3.409095,1.373 -4.734749,2.509 -1.657755,-0.757 -0.568796,-2.603 0.236689,-3.361 z m -1.610052,5.351 v 0 c 1.136676,0 2.509114,0.805 2.509114,1.61 0,0.709 -0.994469,1.278 -2.509114,1.231 -1.514638,0 -2.509108,-0.709 -2.509108,-1.373 0,-0.569 1.231158,-1.516 2.509108,-1.468 z m -5.728299,-0.616 c 0.18899,-0.05 0.236693,-0.05 0.331183,-0.189 -0.425676,-0.142 -0.852271,-0.237 -1.136668,-0.473 0.142198,0 0.284397,0.05 0.473383,-0.09 -0.37889,-0.19 -0.75778,-0.38 -1.088964,-0.663 0.188986,0 0.425678,0 0.473382,-0.1 -0.331184,-0.189 -0.61558,-0.425 -0.852272,-0.709 0.284397,0.05 0.37889,0 0.473383,-0.05 -0.236691,-0.284 -0.567876,-0.473 -0.75778,-0.804 0.188987,0.05 0.37889,0.09 0.521089,0 -0.09449,-0.189 -0.473383,-0.332 -0.663287,-0.758 0.188986,0 0.425678,0.05 0.473384,0 -0.09449,-0.379 -0.284398,-0.615 -0.425679,-0.852 0.473383,0 1.13667,0 1.088964,-0.05 l -0.284397,-0.285 c 0.425679,-0.09 0.899979,0 1.231164,0.142 0.142198,-0.1 0,-0.236 -0.188987,-0.425 0.37889,0.05 0.710076,0.142 1.041261,0.237 0.142198,-0.143 -0.0945,-0.285 -0.236696,-0.426 0.567879,0.09 0.852277,0.285 1.088966,0.426 0.188985,-0.19 0,-0.332 -0.0945,-0.474 0.42568,0.142 0.663293,0.379 0.899981,0.567 0.0945,-0.09 0.188985,-0.188 0.04771,-0.425 0.331191,0.189 0.567879,0.378 0.710078,0.616 0.188985,-0.142 0.0945,-0.284 0.0945,-0.425 0.331184,0.236 0.521087,0.52 0.757775,0.804 0.04771,-0.05 0.09449,-0.143 0.142199,-0.331 0.757782,0.758 1.846746,2.603 0.284398,3.314 -1.325654,-1.089 -2.935712,-1.894 -4.734748,-2.509 2.272419,1.183 3.645783,2.083 4.35586,2.888 -0.378893,1.468 -2.320129,1.562 -3.030207,1.515 0.1422,-0.05 0.284398,-0.143 0.331191,-0.284 -0.236695,-0.05 -0.852277,0.05 -1.325659,-0.191 z m 2.792594,1.136 c 0.804567,0.142 -3.740278,4.025 -3.83477,3.172 -0.04678,-2.272 1.704542,-3.503 3.83477,-3.172 z m -4.781536,8.665 c -1.088965,-0.852 -1.467855,-3.409 0.567876,-4.593 1.231163,-0.284 0.426595,5.067 -0.567876,4.593 z m 4.213657,4.592 c -0.615583,0.38 -2.130222,0.237 -3.219186,-1.277 -0.710074,-1.278 -0.615582,-2.557 -0.142199,-2.936 0.75778,-0.474 1.941236,0.142 2.840298,1.183 0.805485,0.899 1.184373,2.556 0.521087,3.03 z m -1.231158,-5.587 c -1.136672,-0.757 -1.325659,-2.414 -0.473383,-3.74 0.899974,-1.326 2.509108,-1.799 3.645783,-1.041 1.136669,0.758 1.325654,2.414 0.473384,3.74 -0.852277,1.326 -2.509115,1.799 -3.645784,1.041 z m 4.734742,8.191 c -1.373357,0.05 -2.699017,-1.089 -2.699017,-1.515 0,-0.568 1.656843,-1.041 2.745809,-1.041 1.088965,-0.05 2.603603,0.332 2.603603,0.9 0.04862,0.519 -1.324735,1.656 -2.650395,1.656 z m 2.74581,-5.824 c 0,1.373 -1.231165,2.509 -2.74581,2.509 -1.514638,0 -2.745803,-1.089 -2.745803,-2.509 0,0 0,0 0,-0.05 0,-1.373 1.231165,-2.509 2.745803,-2.509 1.514645,0.05 2.74581,1.137 2.74581,2.557 z m 3.834768,1.99 c -1.183462,1.61 -2.745804,1.656 -3.361385,1.23 -0.615583,-0.567 -0.1422,-2.367 0.71007,-3.361 v 0 c 0.99447,-1.09 2.035732,-1.799 2.74581,-1.231 0.474294,0.474 0.757775,2.272 -0.09449,3.362 z m 1.042173,-3.41 c -0.99447,0.426 -1.799037,-4.877 -0.567873,-4.592 2.035732,1.183 1.70363,3.74 0.567873,4.592 z" /><rect
     style="fill:none;stroke-width:1.33333"
     width="79.371002"
     x="38.710339"
     y="23133.932"
     height="4.4986668"
     id="rect1066-6" /><text
     style="font-size:3.73335px;font-family:DroidSans;fill:#ffffff;stroke-width:1.33334"
     y="23137.479"
     x="69.946068"
     id="text1068-6"
     font-size="38.88898087">D</text><text
     style="font-size:3.73335px;font-family:DroidSans;fill:#ffffff;stroke-width:1.33334"
     y="23137.479"
     x="73.605545"
     id="text1080-5"
     font-size="38.88898087">E</text><text
     style="font-size:3.73335px;font-family:DroidSans;fill:#ffffff;stroke-width:1.33334"
     y="23137.479"
     x="76.535957"
     id="text1092-1"
     font-size="38.88898087">B</text><text
     style="font-size:3.73335px;font-family:DroidSans;fill:#ffffff;stroke-width:1.33334"
     y="23137.479"
     x="79.900513"
     id="text1104-0"
     font-size="38.88898087">U</text><text
     style="font-size:3.73335px;font-family:DroidSans;fill:#ffffff;stroke-width:1.33334"
     y="23137.479"
     x="83.625732"
     id="text1116-6"
     font-size="38.88898087">G</text><text
     style="font-size:3.73334px;font-family:DroidSans;fill:#ffffff;stroke-width:1.33333"
     y="56.840961"
     x="-23011.074"
     transform="matrix(0,-0.99999792,1.0000021,0,0,0)"
     id="text1128-9"
     font-size="38.88898087">B</text><text
     style="font-size:3.73334px;font-family:DroidSans;fill:#ffffff;stroke-width:1.33333"
     y="56.840961"
     x="-23007.709"
     transform="matrix(0,-0.99999792,1.0000021,0,0,0)"
     id="text1140-4"
     font-size="38.88898087">O</text><text
     style="font-size:3.73334px;font-family:DroidSans;fill:#ffffff;stroke-width:1.33333"
     y="56.840961"
     x="-23003.777"
     transform="matrix(0,-0.99999792,1.0000021,0,0,0)"
     id="text1152-5"
     font-size="38.88898087">O</text><text
     style="font-size:3.73334px;font-family:DroidSans;fill:#ffffff;stroke-width:1.33333"
     y="56.840961"
     x="-22999.986"
     transform="matrix(0,-0.99999792,1.0000021,0,0,0)"
     id="text1164-8"
     font-size="38.88898087">T</text><text
     style="font-size:3.73334px;font-family:DroidSans;fill:#ffffff;stroke-width:1.33333"
     y="56.840961"
     x="-22997.145"
     transform="matrix(0,-0.99999792,1.0000021,0,0,0)"
     id="text1176-4"
     font-size="38.88898087">S</text><text
     style="font-size:3.73334px;font-family:DroidSans;fill:#ffffff;stroke-width:1.33333"
     y="56.840961"
     x="-22994.256"
     transform="matrix(0,-0.99999792,1.0000021,0,0,0)"
     id="text1188-2"
     font-size="38.88898087">E</text><text
     style="font-size:3.73334px;font-family:DroidSans;fill:#ffffff;stroke-width:1.33333"
     y="56.840961"
     x="-22991.324"
     transform="matrix(0,-0.99999792,1.0000021,0,0,0)"
     id="text1200-1"
     font-size="38.88898087">L</text><text
     style="font-size:3.73335px;font-family:DroidSans;fill:#ffffff;stroke-width:1.33334"
     y="22978.746"
     x="52.167061"
     id="text1212-4"
     font-size="38.88898087">L</text><text
     style="font-size:3.73335px;font-family:DroidSans;fill:#ffffff;stroke-width:1.33334"
     y="22978.746"
     x="54.926266"
     id="text1224-1"
     font-size="38.88898087">E</text><text
     style="font-size:3.73335px;font-family:DroidSans;fill:#ffffff;stroke-width:1.33334"
     y="22978.746"
     x="57.856544"
     id="text1236-9"
     font-size="38.88898087">D</text><text
     style="font-size:3.73335px;font-family:DroidSans;fill:#ffffff;stroke-width:1.33334"
     y="22962.223"
     x="47.975708"
     id="text1248-9"
     font-size="38.88898087">1</text><text
     style="font-size:3.73335px;font-family:DroidSans;fill:#ffffff;stroke-width:1.33334"
     y="22971.824"
     x="47.975708"
     id="text1260-4"
     font-size="38.88898087">2</text><text
     style="font-size:3.73335px;font-family:DroidSans;fill:#ffffff;stroke-width:1.33334"
     y="22971.824"
     x="103.28407"
     id="text1272-6"
     font-size="38.88898087">3</text><text
     style="font-size:3.73335px;font-family:DroidSans;fill:#ffffff;stroke-width:1.33334"
     y="22971.824"
     x="106.32129"
     id="text1284-1"
     font-size="38.88898087">9</text><text
     style="font-size:3.73335px;font-family:DroidSans;fill:#ffffff;stroke-width:1.33334"
     y="22978.746"
     x="73.406082"
     id="text1296-2"
     font-size="38.88898087">U</text><text
     style="font-size:3.73335px;font-family:DroidSans;fill:#ffffff;stroke-width:1.33334"
     y="22978.746"
     x="77.131294"
     id="text1308-1"
     font-size="38.88898087">S</text><text
     style="font-size:3.73335px;font-family:DroidSans;fill:#ffffff;stroke-width:1.33334"
     y="22978.746"
     x="80.020638"
     id="text1320-1"
     font-size="38.88898087">B</text><rect
     style="fill:none;stroke-width:1.33333"
     width="8.3600349"
     x="49.814384"
     y="23012.461"
     height="119.31601"
     id="rect1332-6" /><text
     style="font-size:2.34668px;font-family:'Droid Sans';fill:#3d3f38;stroke-width:1.33334"
     y="23059.934"
     x="67.28566"
     id="text1610-9"
     font-size="24.44450188">R</text><text
     style="font-size:2.34668px;font-family:'Droid Sans';fill:#3d3f38;stroke-width:1.33334"
     y="23059.934"
     x="69.135925"
     id="text1622-1"
     font-size="24.44450188">P</text><text
     style="font-size:2.34668px;font-family:'Droid Sans';fill:#3d3f38;stroke-width:1.33334"
     y="23059.934"
     x="71.054604"
     id="text1634-5"
     font-size="24.44450188">2</text><text
     style="font-size:2.34668px;font-family:'Droid Sans';fill:#3d3f38;stroke-width:1.33334"
     y="23059.934"
     x="72.796074"
     id="text1646-5"
     font-size="24.44450188">-</text><text
     style="font-size:2.34668px;font-family:'Droid Sans';fill:#3d3f38;stroke-width:1.33334"
     y="23059.934"
     x="73.816887"
     id="text1658-1"
     font-size="24.44450188">8</text><text
     style="font-size:2.34668px;font-family:'Droid Sans';fill:#3d3f38;stroke-width:1.33334"
     y="23059.934"
     x="75.558495"
     id="text1670-6"
     font-size="24.44450188">0</text><text
     style="font-size:2.34668px;font-family:'Droid Sans';fill:#3d3f38;stroke-width:1.33334"
     y="23059.934"
     x="81.160782"
     id="text1730-4"
     font-size="24.44450188">2</text><text
     style="font-size:2.34668px;font-family:'Droid Sans';fill:#3d3f38;stroke-width:1.33334"
     y="23059.934"
     x="82.901581"
     id="text1742-8"
     font-size="24.44450188">0</text><text
     style="font-size:2.34668px;font-family:'Droid Sans';fill:#3d3f38;stroke-width:1.33334"
     y="23059.934"
     x="84.643188"
     id="text1754-6"
     font-size="24.44450188">/</text><text
     style="font-size:2.34668px;font-family:'Droid Sans';fill:#3d3f38;stroke-width:1.33334"
     y="23059.934"
     x="86.023331"
     id="text1766-9"
     font-size="24.44450188">2</text><text
     style="font-size:2.34668px;font-family:'Droid Sans';fill:#3d3f38;stroke-width:1.33334"
     y="23059.934"
     x="87.764938"
     id="text1778-4"
     font-size="24.44450188">1</text><text
     style="font-size:2.34668px;font-family:'Droid Sans';fill:#3d3f38;stroke-width:1.33334"
     y="23063.268"
     x="67.24659"
     id="text1790-8"
     font-size="24.44450188">P</text><text
     style="font-size:2.34668px;font-family:'Droid Sans';fill:#3d3f38;stroke-width:1.33334"
     y="23063.268"
     x="69.165924"
     id="text1802-5"
     font-size="24.44450188">6</text><text
     style="font-size:2.34668px;font-family:'Droid Sans';fill:#3d3f38;stroke-width:1.33334"
     y="23063.268"
     x="70.906731"
     id="text1814-0"
     font-size="24.44450188">4</text><text
     style="font-size:2.34668px;font-family:'Droid Sans';fill:#3d3f38;stroke-width:1.33334"
     y="23063.268"
     x="72.648346"
     id="text1826-9"
     font-size="24.44450188">M</text><text
     style="font-size:2.34668px;font-family:'Droid Sans';fill:#3d3f38;stroke-width:1.33334"
     y="23063.268"
     x="75.156754"
     id="text1838-9"
     font-size="24.44450188">1</text><text
     style="font-size:2.34668px;font-family:'Droid Sans';fill:#3d3f38;stroke-width:1.33334"
     y="23063.268"
     x="76.898361"
     id="text1850-4"
     font-size="24.44450188">5</text><text
     style="font-size:2.34668px;font-family:'Droid Sans';fill:#3d3f38;stroke-width:1.33334"
     y="23063.268"
     x="78.639168"
     id="text1862-1"
     font-size="24.44450188">.</text><text
     style="font-size:2.34668px;font-family:'Droid Sans';fill:#3d3f38;stroke-width:1.33334"
     y="23063.268"
     x="79.70504"
     id="text1874-4"
     font-size="24.44450188">0</text><text
     style="font-size:2.34668px;font-family:'Droid Sans';fill:#3d3f38;stroke-width:1.33334"
     y="23063.268"
     x="81.445839"
     id="text1886-4"
     font-size="24.44450188">0</text><text
     style="font-size:2.34668px;font-family:'Droid Sans';fill:#3d3f38;stroke-width:1.33334"
     y="23063.268"
     x="84.095596"
     id="text1910-3"
     font-size="24.44450188">T</text><text
     style="font-size:2.34668px;font-family:'Droid Sans';fill:#3d3f38;stroke-width:1.33334"
     y="23063.268"
     x="85.938126"
     id="text1922-3"
     font-size="24.44450188">T</text><text
     style="font-size:2.34668px;font-family:'Droid Sans';fill:#3d3f38;stroke-width:1.33334"
     y="23063.268"
     x="87.781204"
     id="text1934-3"
     font-size="24.44450188">T</text><path
     style="fill:#3d3f38;stroke-width:1.33333"
     inkscape:connector-curvature="0"
     id="path1947-3"
     d="m 83.070524,23049.018 -0.112004,-0.167 c 0,-1.281 -0.585331,-1.783 -1.28134,-2.173 0.194669,-0.06 0.417341,-0.112 0.473338,-0.363 0.362668,-0.08 0.41734,-0.251 0.473337,-0.417 0.084,-0.06 0.417331,-0.251 0.362669,-0.53 0.166665,-0.112 0.278668,-0.278 0.222662,-0.501 0.194669,-0.195 0.250675,-0.363 0.166675,-0.529 0.222662,-0.279 0.138662,-0.418 0.02799,-0.586 0.166665,-0.306 0.028,-0.641 -0.445335,-0.585 -0.194668,-0.279 -0.585331,-0.223 -0.667996,-0.223 -0.084,-0.08 -0.166675,-0.166 -0.445344,-0.138 -0.194669,-0.167 -0.389328,-0.139 -0.613334,-0.06 -0.250666,-0.195 -0.417331,-0.03 -0.613334,0.03 -0.306663,-0.112 -0.389338,0.03 -0.529335,0.08 -0.334665,-0.08 -0.445334,0.08 -0.613334,0.25 H 79.28117 c -0.50134,0.307 -0.752006,0.892 -0.863999,1.198 -0.08401,-0.307 -0.334675,-0.919 -0.86401,-1.198 h -0.194668 c -0.166666,-0.166 -0.250666,-0.306 -0.613335,-0.25 -0.138672,-0.06 -0.222672,-0.195 -0.529334,-0.08 -0.138672,-0.03 -0.250665,-0.112 -0.389337,-0.112 v 0 c -0.084,0 -0.138663,0.03 -0.250666,0.08 -0.222672,-0.08 -0.417331,-0.112 -0.613334,0.06 -0.278669,-0.03 -0.389338,0.03 -0.445334,0.138 -0.05601,0 -0.473338,-0.06 -0.668007,0.223 -0.473337,-0.06 -0.613334,0.279 -0.445334,0.585 -0.084,0.139 -0.194669,0.279 0.028,0.586 -0.08401,0.166 -0.028,0.334 0.166666,0.529 -0.05601,0.223 0.056,0.363 0.222662,0.501 -0.02799,0.307 0.278669,0.474 0.362669,0.53 0.028,0.166 0.112003,0.334 0.473337,0.417 0.056,0.251 0.278669,0.307 0.473338,0.363 -0.696,0.389 -1.281341,0.918 -1.281341,2.173 l -0.112003,0.167 c -0.779999,0.473 -1.504002,1.977 -0.389337,3.23 0.08401,0.39 0.194669,0.668 0.306672,0.975 0.166665,1.225 1.225343,1.811 1.504012,1.895 0.417331,0.306 0.835997,0.585 1.420003,0.808 0.557337,0.557 1.142668,0.78 1.754668,0.78 h 0.028 c 0.613334,0 1.197341,-0.223 1.754678,-0.78 0.585331,-0.195 1.030665,-0.502 1.420003,-0.808 0.278669,-0.06 1.337337,-0.642 1.504003,-1.895 0.112003,-0.307 0.222672,-0.585 0.306672,-0.975 1.228002,-1.253 0.532003,-2.757 -0.276,-3.23 z m -0.584007,-0.223 c -0.02799,0.501 -2.702677,-1.783 -2.256008,-1.867 1.252002,-0.194 2.282677,0.53 2.256008,1.867 z m -1.198665,2.535 c -0.668006,0.445 -1.644009,0.166 -2.14535,-0.614 -0.529334,-0.78 -0.389327,-1.754 0.278669,-2.2 0.668006,-0.445 1.644009,-0.166 2.14534,0.614 0.529344,0.808 0.390672,1.782 -0.278659,2.2 z m -1.838678,-7.883 c 0.028,0.112 0.056,0.195 0.084,0.195 0.138672,-0.167 0.278669,-0.335 0.445335,-0.474 0,0.08 -0.056,0.195 0.056,0.251 0.112004,-0.139 0.250675,-0.251 0.417341,-0.363 -0.084,0.139 -0.028,0.195 0.02799,0.251 0.138672,-0.112 0.278668,-0.251 0.529343,-0.335 -0.084,0.08 -0.166675,0.167 -0.05601,0.279 0.138672,-0.08 0.278669,-0.167 0.641337,-0.251 -0.084,0.08 -0.250665,0.167 -0.138662,0.251 0.194659,-0.06 0.389328,-0.112 0.613334,-0.139 -0.112003,0.08 -0.194668,0.167 -0.112003,0.251 0.194669,-0.06 0.473338,-0.139 0.724003,-0.08 l -0.166665,0.167 c -0.028,0.03 0.389337,0.03 0.641337,0.03 -0.084,0.138 -0.194669,0.278 -0.250666,0.501 0.02799,0.03 0.166666,0 0.27866,0 -0.138663,0.279 -0.362669,0.335 -0.389328,0.445 0.084,0.06 0.194668,0.06 0.306662,0 -0.084,0.195 -0.278669,0.307 -0.445334,0.474 0.028,0.03 0.112003,0.06 0.278668,0.03 -0.138662,0.138 -0.306671,0.278 -0.501331,0.417 0.02799,0.03 0.166666,0.03 0.278669,0.06 -0.194669,0.167 -0.417341,0.279 -0.641337,0.389 0.111993,0.08 0.194668,0.06 0.278668,0.06 -0.166675,0.139 -0.41734,0.195 -0.668006,0.279 0.056,0.08 0.084,0.08 0.194669,0.112 -0.250666,0.139 -0.641337,0.08 -0.752006,0.139 0.028,0.08 0.084,0.112 0.194669,0.166 -0.417332,0.03 -1.56001,-0.03 -1.782672,-0.892 0.417331,-0.473 1.225334,-1.03 2.562671,-1.698 -1.058668,0.362 -2.005333,0.808 -2.785343,1.476 -0.977337,-0.443 -0.337334,-1.53 0.136003,-1.975 z m -0.946675,3.148 v 0 c 0.668007,0 1.47601,0.473 1.47601,0.947 0,0.417 -0.585331,0.752 -1.47601,0.724 -0.892002,0 -1.475999,-0.418 -1.475999,-0.808 0,-0.335 0.724003,-0.891 1.475999,-0.863 z m -3.370674,-0.363 c 0.111994,-0.03 0.138663,-0.03 0.194669,-0.112 -0.250675,-0.08 -0.501341,-0.138 -0.668006,-0.278 0.084,0 0.166665,0.03 0.278669,-0.06 -0.222672,-0.112 -0.445335,-0.223 -0.641338,-0.39 0.112003,0 0.250666,0 0.278669,-0.06 -0.194669,-0.112 -0.362669,-0.25 -0.501341,-0.417 0.166675,0.03 0.222672,0 0.278669,-0.03 -0.138662,-0.167 -0.334666,-0.279 -0.445334,-0.473 0.112003,0.03 0.222672,0.06 0.306672,0 -0.05601,-0.112 -0.278669,-0.195 -0.389338,-0.446 0.112003,0 0.250666,0.03 0.278669,0 -0.056,-0.222 -0.166666,-0.362 -0.250666,-0.501 0.278669,0 0.667997,0 0.641338,-0.03 l -0.166675,-0.167 c 0.250675,-0.06 0.529343,0 0.724003,0.08 0.084,-0.06 0,-0.138 -0.111994,-0.25 0.222662,0.03 0.417331,0.08 0.613334,0.138 0.084,-0.08 -0.05601,-0.166 -0.138672,-0.25 0.334675,0.06 0.501341,0.166 0.641338,0.25 0.112003,-0.112 0,-0.194 -0.056,-0.278 0.250665,0.08 0.389337,0.222 0.529334,0.334 0.056,-0.06 0.112003,-0.112 0.028,-0.25 0.194669,0.112 0.334666,0.222 0.417331,0.362 0.112003,-0.08 0.056,-0.166 0.056,-0.25 0.194669,0.138 0.306672,0.306 0.445344,0.473 0.02799,-0.03 0.056,-0.08 0.084,-0.195 0.445334,0.446 1.086672,1.532 0.166665,1.95 -0.780009,-0.642 -1.726674,-1.115 -2.785343,-1.476 1.337338,0.696 2.14534,1.225 2.562672,1.698 -0.222663,0.864 -1.365341,0.919 -1.782672,0.892 0.084,-0.03 0.166666,-0.08 0.194669,-0.166 -0.141341,-0.03 -0.504,0.02 -0.782669,-0.114 z m 1.644009,0.668 c 0.473328,0.08 -2.200012,2.368 -2.256018,1.867 -0.02799,-1.337 1.002672,-2.061 2.256018,-1.867 z m -2.813346,5.099 c -0.641337,-0.501 -0.864009,-2.005 0.334666,-2.703 0.724003,-0.166 0.249331,2.98 -0.334666,2.703 z m 2.478671,2.701 c -0.362668,0.223 -1.253337,0.139 -1.894674,-0.752 -0.417331,-0.752 -0.362669,-1.504 -0.084,-1.726 0.445334,-0.279 1.142678,0.08 1.672012,0.696 0.473328,0.529 0.697334,1.504 0.306662,1.782 z m -0.724003,-3.286 c -0.667996,-0.446 -0.779999,-1.42 -0.278668,-2.2 0.529334,-0.78 1.476009,-1.059 2.145349,-0.614 0.669331,0.446 0.78,1.42 0.278659,2.2 -0.502665,0.78 -1.477333,1.059 -2.14534,0.614 z m 2.785343,4.818 c -0.808003,0.03 -1.588002,-0.641 -1.588002,-0.892 0,-0.334 0.974668,-0.613 1.616006,-0.613 0.641337,-0.03 1.532006,0.195 1.532006,0.529 0.028,0.308 -0.78,0.976 -1.56001,0.976 z m 1.616006,-3.426 c 0,0.808 -0.723993,1.476 -1.616006,1.476 -0.892002,0 -1.616005,-0.642 -1.616005,-1.476 0,0 0,0 0,-0.03 0,-0.808 0.724003,-1.476 1.616005,-1.476 0.892013,0.03 1.616006,0.669 1.616006,1.504 z m 2.256019,1.17 c -0.69601,0.947 -1.616016,0.975 -1.97735,0.724 -0.362669,-0.334 -0.084,-1.393 0.417341,-1.977 v 0 c 0.585331,-0.641 1.19734,-1.059 1.616006,-0.724 0.278668,0.277 0.445334,1.336 -0.056,1.977 z m 0.613334,-2.005 c -0.585341,0.251 -1.058678,-2.869 -0.334675,-2.703 1.19734,0.696 1.002672,2.202 0.334675,2.703 z" /><path
     style="fill:#958863;stroke-width:1.33333"
     inkscape:connector-curvature="0"
     d="m 47.429039,22970.228 c 0,-1.452 -1.181338,-2.633 -2.633344,-2.633 h -6.085359 v 1.021 c 0,0 0,0 0,0 0.889337,0 1.61334,0.723 1.61334,1.612 0,0.89 -0.724003,1.614 -1.61334,1.614 0,0 0,0 0,0 v 1.021 h 6.085359 c 1.452006,0 2.633344,-1.183 2.633344,-2.635 z m -2.633344,1.596 c -0.880003,0 -1.596007,-0.716 -1.596007,-1.596 0,-0.88 0.716004,-1.596 1.596007,-1.596 0.880004,0 1.596007,0.716 1.596007,1.596 0,0.88 -0.716003,1.596 -1.596007,1.596 z"
     id="path227-0"
     gorn="0.1.1.8.0.0" /><path
     style="fill:#958863;stroke-width:1.33333"
     inkscape:connector-curvature="0"
     d="m 47.429039,22977.196 h -8.718703 v 1.022 c 0,0 0,0 0,0 0.889337,0 1.61334,0.722 1.61334,1.612 0,0.889 -0.724003,1.612 -1.61334,1.612 0,0 0,0 0,0 v 1.021 h 8.718703 z m -2.633344,4.23 c -0.880003,0 -1.596007,-0.716 -1.596007,-1.596 0,-0.88 0.716004,-1.596 1.596007,-1.596 0.880004,0 1.596007,0.716 1.596007,1.596 0,0.88 -0.716003,1.596 -1.596007,1.596 z"
     id="path41-8"
     gorn="0.1.1.8.0.1" /><path
     style="fill:#958863;stroke-width:1.33333"
     inkscape:connector-curvature="0"
     d="m 47.429039,22989.428 c 0,-1.452 -1.181338,-2.633 -2.633344,-2.633 h -6.085359 v 1.021 c 0,0 0,0 0,0 0.889337,0 1.61334,0.723 1.61334,1.612 0,0.89 -0.724003,1.614 -1.61334,1.614 0,0 0,0 0,0 v 1.021 h 6.085359 c 1.452006,-10e-4 2.633344,-1.183 2.633344,-2.635 z m -2.633344,1.596 c -0.880003,0 -1.596007,-0.716 -1.596007,-1.596 0,-0.88 0.716004,-1.596 1.596007,-1.596 0.880004,0 1.596007,0.716 1.596007,1.596 0,0.88 -0.716003,1.596 -1.596007,1.596 z"
     id="path230-8"
     gorn="0.1.1.8.0.2" /><path
     style="fill:#958863;stroke-width:1.33333"
     inkscape:connector-curvature="0"
     d="m 47.429039,22999.027 c 0,-1.452 -1.181338,-2.633 -2.633344,-2.633 h -6.085359 v 1.021 c 0,0 0,0 0,0 0.889337,0 1.61334,0.723 1.61334,1.612 0,0.889 -0.724003,1.613 -1.61334,1.613 0,0 0,0 0,0 v 1.022 h 6.085359 c 1.452006,0 2.633344,-1.183 2.633344,-2.635 z m -2.633344,1.596 c -0.880003,0 -1.596007,-0.716 -1.596007,-1.596 0,-0.88 0.716004,-1.596 1.596007,-1.596 0.880004,0 1.596007,0.716 1.596007,1.596 0,0.88 -0.716003,1.596 -1.596007,1.596 z"
     id="path39-9"
     gorn="0.1.1.8.0.3" /><path
     style="fill:#958863;stroke-width:1.33333"
     inkscape:connector-curvature="0"
     d="m 47.429039,23008.627 c 0,-1.452 -1.181338,-2.633 -2.633344,-2.633 h -6.085359 v 1.021 c 0,0 0,0 0,0 0.889337,0 1.61334,0.723 1.61334,1.612 0,0.889 -0.724003,1.613 -1.61334,1.613 0,0 0,0 0,0 v 1.022 h 6.085359 c 1.452006,0 2.633344,-1.183 2.633344,-2.635 z m -2.633344,1.596 c -0.880003,0 -1.596007,-0.716 -1.596007,-1.596 0,-0.88 0.716004,-1.596 1.596007,-1.596 0.880004,0 1.596007,0.716 1.596007,1.596 0,0.88 -0.716003,1.596 -1.596007,1.596 z"
     id="path233-3"
     gorn="0.1.1.8.0.4" /><path
     style="fill:#958863;stroke-width:1.33333"
     inkscape:connector-curvature="0"
     d="m 47.429039,23018.227 c 0,-1.452 -1.181338,-2.633 -2.633344,-2.633 h -6.085359 v 1.021 c 0,0 0,0 0,0 0.889337,0 1.61334,0.723 1.61334,1.612 0,0.889 -0.724003,1.613 -1.61334,1.613 0,0 0,0 0,0 v 1.022 h 6.085359 c 1.452006,0 2.633344,-1.183 2.633344,-2.635 z m -2.633344,1.596 c -0.880003,0 -1.596007,-0.716 -1.596007,-1.596 0,-0.88 0.716004,-1.596 1.596007,-1.596 0.880004,0 1.596007,0.716 1.596007,1.596 0,0.88 -0.716003,1.596 -1.596007,1.596 z"
     id="path37-5"
     gorn="0.1.1.8.0.5" /><path
     style="fill:#958863;stroke-width:1.33333"
     inkscape:connector-curvature="0"
     d="m 47.429039,23025.194 h -8.718703 v 1.021 c 0,0 0,0 0,0 0.889337,0 1.61334,0.723 1.61334,1.612 0,0.889 -0.724003,1.613 -1.61334,1.613 0,0 0,0 0,0 v 1.022 h 8.718703 z m -2.633344,4.229 c -0.880003,0 -1.596007,-0.716 -1.596007,-1.596 0,-0.88 0.716004,-1.596 1.596007,-1.596 0.880004,0 1.596007,0.716 1.596007,1.596 0,0.88 -0.716003,1.596 -1.596007,1.596 z"
     id="path236-5"
     gorn="0.1.1.8.0.6" /><path
     style="fill:#958863;stroke-width:1.33333"
     inkscape:connector-curvature="0"
     d="m 47.429039,23037.427 c 0,-1.452 -1.181338,-2.633 -2.633344,-2.633 h -6.085359 v 1.021 c 0,0 0,0 0,0 0.889337,0 1.61334,0.723 1.61334,1.612 0,0.889 -0.724003,1.613 -1.61334,1.613 0,0 0,0 0,0 v 1.022 h 6.085359 c 1.452006,0 2.633344,-1.183 2.633344,-2.635 z m -2.633344,1.596 c -0.880003,0 -1.596007,-0.716 -1.596007,-1.596 0,-0.88 0.716004,-1.596 1.596007,-1.596 0.880004,0 1.596007,0.716 1.596007,1.596 0,0.88 -0.716003,1.596 -1.596007,1.596 z"
     id="path35-3"
     gorn="0.1.1.8.0.7" /><path
     style="fill:#958863;stroke-width:1.33333"
     inkscape:connector-curvature="0"
     d="m 47.429039,23047.027 c 0,-1.452 -1.181338,-2.633 -2.633344,-2.633 h -6.085359 v 1.021 c 0,0 0,0 0,0 0.889337,0 1.61334,0.723 1.61334,1.612 0,0.889 -0.724003,1.613 -1.61334,1.613 0,0 0,0 0,0 v 1.022 h 6.085359 c 1.452006,0 2.633344,-1.183 2.633344,-2.635 z m -2.633344,1.596 c -0.880003,0 -1.596007,-0.716 -1.596007,-1.596 0,-0.88 0.716004,-1.596 1.596007,-1.596 0.880004,0 1.596007,0.716 1.596007,1.596 0,0.88 -0.716003,1.596 -1.596007,1.596 z"
     id="path239-5"
     gorn="0.1.1.8.0.8" /><path
     style="fill:#958863;stroke-width:1.33333"
     inkscape:connector-curvature="0"
     d="m 47.429039,23056.627 c 0,-1.452 -1.181338,-2.633 -2.633344,-2.633 h -6.085359 v 1.021 c 0,0 0,0 0,0 0.889337,0 1.61334,0.723 1.61334,1.612 0,0.889 -0.724003,1.613 -1.61334,1.613 0,0 0,0 0,0 v 1.022 h 6.085359 c 1.452006,0 2.633344,-1.183 2.633344,-2.635 z m -2.633344,1.596 c -0.880003,0 -1.596007,-0.716 -1.596007,-1.596 0,-0.88 0.716004,-1.596 1.596007,-1.596 0.880004,0 1.596007,0.716 1.596007,1.596 0,0.88 -0.716003,1.596 -1.596007,1.596 z"
     id="path33-9"
     gorn="0.1.1.8.0.9" /><path
     style="fill:#958863;stroke-width:1.33333"
     inkscape:connector-curvature="0"
     d="m 47.429039,23066.227 c 0,-1.452 -1.181338,-2.633 -2.633344,-2.633 h -6.085359 v 1.021 c 0,0 0,0 0,0 0.889337,0 1.61334,0.723 1.61334,1.612 0,0.889 -0.724003,1.613 -1.61334,1.613 0,0 0,0 0,0 v 1.022 h 6.085359 c 1.452006,0 2.633344,-1.183 2.633344,-2.635 z m -2.633344,1.596 c -0.880003,0 -1.596007,-0.716 -1.596007,-1.596 0,-0.88 0.716004,-1.596 1.596007,-1.596 0.880004,0 1.596007,0.716 1.596007,1.596 0,0.88 -0.716003,1.596 -1.596007,1.596 z"
     id="path242-9"
     gorn="0.1.1.8.0.10" /><path
     style="fill:#958863;stroke-width:1.33333"
     inkscape:connector-curvature="0"
     d="m 47.429039,23073.194 h -8.718703 v 1.021 c 0,0 0,0 0,0 0.889337,0 1.61334,0.723 1.61334,1.612 0,0.889 -0.724003,1.613 -1.61334,1.613 0,0 0,0 0,0 v 1.022 h 8.718703 z m -2.633344,4.229 c -0.880003,0 -1.596007,-0.716 -1.596007,-1.596 0,-0.88 0.716004,-1.596 1.596007,-1.596 0.880004,0 1.596007,0.716 1.596007,1.596 0,0.88 -0.716003,1.596 -1.596007,1.596 z"
     id="path31-0"
     gorn="0.1.1.8.0.11" /><path
     style="fill:#958863;stroke-width:1.33333"
     inkscape:connector-curvature="0"
     d="m 47.429039,23085.427 c 0,-1.452 -1.181338,-2.633 -2.633344,-2.633 h -6.085359 v 1.021 c 0,0 0,0 0,0 0.889337,0 1.61334,0.723 1.61334,1.612 0,0.889 -0.724003,1.612 -1.61334,1.612 0,0 0,0 0,0 v 1.021 h 6.085359 c 1.452006,0 2.633344,-1.181 2.633344,-2.633 z m -2.633344,1.596 c -0.880003,0 -1.596007,-0.716 -1.596007,-1.596 0,-0.88 0.716004,-1.596 1.596007,-1.596 0.880004,0 1.596007,0.716 1.596007,1.596 0,0.88 -0.716003,1.596 -1.596007,1.596 z"
     id="path245-1"
     gorn="0.1.1.8.0.12" /><path
     style="fill:#958863;stroke-width:1.33333"
     inkscape:connector-curvature="0"
     d="m 47.429039,23095.027 c 0,-1.452 -1.181338,-2.633 -2.633344,-2.633 h -6.085359 v 1.021 c 0,0 0,0 0,0 0.889337,0 1.61334,0.723 1.61334,1.612 0,0.889 -0.724003,1.612 -1.61334,1.612 0,0 0,0 0,0 v 1.021 h 6.085359 c 1.452006,0 2.633344,-1.181 2.633344,-2.633 z m -2.633344,1.596 c -0.880003,0 -1.596007,-0.716 -1.596007,-1.596 0,-0.88 0.716004,-1.596 1.596007,-1.596 0.880004,0 1.596007,0.716 1.596007,1.596 0,0.88 -0.716003,1.596 -1.596007,1.596 z"
     id="path29-9"
     gorn="0.1.1.8.0.13" /><path
     style="fill:#958863;stroke-width:1.33333"
     inkscape:connector-curvature="0"
     d="m 47.429039,23104.627 c 0,-1.452 -1.181338,-2.633 -2.633344,-2.633 h -6.085359 v 1.021 c 0,0 0,0 0,0 0.889337,0 1.61334,0.723 1.61334,1.612 0,0.889 -0.724003,1.612 -1.61334,1.612 0,0 0,0 0,0 v 1.021 h 6.085359 c 1.452006,0 2.633344,-1.181 2.633344,-2.633 z m -2.633344,1.596 c -0.880003,0 -1.596007,-0.716 -1.596007,-1.596 0,-0.88 0.716004,-1.596 1.596007,-1.596 0.880004,0 1.596007,0.716 1.596007,1.596 0,0.88 -0.716003,1.596 -1.596007,1.596 z"
     id="path248-5"
     gorn="0.1.1.8.0.14" /><path
     style="fill:#958863;stroke-width:1.33333"
     inkscape:connector-curvature="0"
     d="m 47.429039,23114.227 c 0,-1.452 -1.181338,-2.633 -2.633344,-2.633 h -6.085359 v 1.021 c 0,0 0,0 0,0 0.889337,0 1.61334,0.723 1.61334,1.612 0,0.889 -0.724003,1.612 -1.61334,1.612 0,0 0,0 0,0 v 1.021 h 6.085359 c 1.452006,0 2.633344,-1.181 2.633344,-2.633 z m -2.633344,1.596 c -0.880003,0 -1.596007,-0.716 -1.596007,-1.596 0,-0.88 0.716004,-1.596 1.596007,-1.596 0.880004,0 1.596007,0.716 1.596007,1.596 0,0.88 -0.716003,1.596 -1.596007,1.596 z"
     id="path27-3"
     gorn="0.1.1.8.0.15" /><path
     style="fill:#958863;stroke-width:1.33333"
     inkscape:connector-curvature="0"
     d="m 47.429039,23121.194 h -8.718703 v 1.021 c 0,0 0,0 0,0 0.889337,0 1.61334,0.723 1.61334,1.612 0,0.889 -0.724003,1.612 -1.61334,1.612 0,0 0,0 0,0 v 1.021 h 8.718703 z m -2.633344,4.229 c -0.880003,0 -1.596007,-0.716 -1.596007,-1.596 0,-0.88 0.716004,-1.596 1.596007,-1.596 0.880004,0 1.596007,0.716 1.596007,1.596 0,0.88 -0.716003,1.596 -1.596007,1.596 z"
     id="path251-1"
     gorn="0.1.1.8.0.16" /><path
     style="fill:#958863;stroke-width:1.33333"
     inkscape:connector-curvature="0"
     d="m 47.429039,23133.427 c 0,-1.452 -1.181338,-2.633 -2.633344,-2.633 h -6.085359 v 1.021 c 0,0 0,0 0,0 0.889337,0 1.61334,0.723 1.61334,1.612 0,0.889 -0.724003,1.612 -1.61334,1.612 0,0 0,0 0,0 v 1.021 h 6.085359 c 1.452006,0 2.633344,-1.181 2.633344,-2.633 z m -2.633344,1.596 c -0.880003,0 -1.596007,-0.716 -1.596007,-1.596 0,-0.88 0.716004,-1.596 1.596007,-1.596 0.880004,0 1.596007,0.716 1.596007,1.596 0,0.88 -0.716003,1.596 -1.596007,1.596 z"
     id="path25-3"
     gorn="0.1.1.8.0.17" /><path
     style="fill:#958863;stroke-width:1.33333"
     inkscape:connector-curvature="0"
     d="m 47.429039,23143.026 c 0,-1.452 -1.181338,-2.634 -2.633344,-2.634 h -6.085359 v 1.022 c 0,0 0,0 0,0 0.889337,0 1.61334,0.722 1.61334,1.612 0,0.889 -0.724003,1.612 -1.61334,1.612 0,0 0,0 0,0 v 1.021 h 6.085359 c 1.452006,0 2.633344,-1.181 2.633344,-2.633 z m -2.633344,1.596 c -0.880003,0 -1.596007,-0.716 -1.596007,-1.596 0,-0.88 0.716004,-1.596 1.596007,-1.596 0.880004,0 1.596007,0.716 1.596007,1.596 0,0.88 -0.716003,1.596 -1.596007,1.596 z"
     id="path254-4"
     gorn="0.1.1.8.0.18" /><path
     style="fill:#958863;stroke-width:1.33333"
     inkscape:connector-curvature="0"
     d="m 111.99597,22972.862 h 6.08536 v -1.022 c 0,0 0,0 0,0 -0.88934,0 -1.61334,-0.722 -1.61334,-1.612 0,-0.889 0.724,-1.612 1.61334,-1.612 0,0 0,0 0,0 v -1.021 h -6.08536 c -1.45201,0 -2.63334,1.181 -2.63334,2.633 0,1.452 1.18133,2.634 2.63334,2.634 z m -1.59601,-2.634 c 0,-0.88 0.71601,-1.596 1.59601,-1.596 0.88001,0 1.59601,0.716 1.59601,1.596 0,0.88 -0.716,1.596 -1.59601,1.596 -0.88,0 -1.59601,-0.716 -1.59601,-1.596 z"
     id="path2-8"
     gorn="0.1.1.8.0.19" /><path
     style="fill:#958863;stroke-width:1.33333"
     inkscape:connector-curvature="0"
     d="m 109.36263,22982.463 h 8.7187 v -1.021 c 0,0 0,0 0,0 -0.88934,0 -1.61334,-0.723 -1.61334,-1.612 0,-0.89 0.724,-1.612 1.61334,-1.612 0,0 0,0 0,0 v -1.022 h -8.7187 z m 1.03733,-2.633 c 0,-0.88 0.71601,-1.596 1.59601,-1.596 0.88001,0 1.59601,0.716 1.59601,1.596 0,0.88 -0.716,1.596 -1.59601,1.596 -0.88,0 -1.59601,-0.716 -1.59601,-1.596 z"
     id="path3-1"
     gorn="0.1.1.8.0.20" /><path
     style="fill:#958863;stroke-width:1.33333"
     inkscape:connector-curvature="0"
     d="m 111.99597,22992.062 h 6.08536 v -1.022 c 0,0 0,0 0,0 -0.88934,0 -1.61334,-0.722 -1.61334,-1.612 0,-0.889 0.724,-1.612 1.61334,-1.612 0,0 0,0 0,0 v -1.021 h -6.08536 c -1.45201,0 -2.63334,1.181 -2.63334,2.633 0,1.452 1.18133,2.634 2.63334,2.634 z m -1.59601,-2.634 c 0,-0.88 0.71601,-1.596 1.59601,-1.596 0.88001,0 1.59601,0.716 1.59601,1.596 0,0.88 -0.716,1.596 -1.59601,1.596 -0.88,0 -1.59601,-0.716 -1.59601,-1.596 z"
     id="path258-0"
     gorn="0.1.1.8.0.21" /><path
     style="fill:#958863;stroke-width:1.33333"
     inkscape:connector-curvature="0"
     d="m 111.99597,23001.66 h 6.08536 v -1.021 c 0,0 0,0 0,0 -0.88934,0 -1.61334,-0.723 -1.61334,-1.612 0,-0.889 0.724,-1.612 1.61334,-1.612 0,0 0,0 0,0 v -1.021 h -6.08536 c -1.45201,0 -2.63334,1.181 -2.63334,2.633 0,1.452 1.18133,2.633 2.63334,2.633 z m -1.59601,-2.633 c 0,-0.88 0.71601,-1.596 1.59601,-1.596 0.88001,0 1.59601,0.716 1.59601,1.596 0,0.88 -0.716,1.596 -1.59601,1.596 -0.88,0 -1.59601,-0.716 -1.59601,-1.596 z"
     id="path5-8"
     gorn="0.1.1.8.0.22" /><path
     style="fill:#958863;stroke-width:1.33333"
     inkscape:connector-curvature="0"
     d="m 111.99597,23011.26 h 6.08536 v -1.021 c 0,0 0,0 0,0 -0.88934,0 -1.61334,-0.723 -1.61334,-1.612 0,-0.889 0.724,-1.612 1.61334,-1.612 0,0 0,0 0,0 v -1.021 h -6.08536 c -1.45201,0 -2.63334,1.181 -2.63334,2.633 0,1.452 1.18133,2.633 2.63334,2.633 z m -1.59601,-2.633 c 0,-0.88 0.71601,-1.596 1.59601,-1.596 0.88001,0 1.59601,0.716 1.59601,1.596 0,0.88 -0.716,1.596 -1.59601,1.596 -0.88,0 -1.59601,-0.716 -1.59601,-1.596 z"
     id="path261-7"
     gorn="0.1.1.8.0.23" /><path
     style="fill:#958863;stroke-width:1.33333"
     inkscape:connector-curvature="0"
     d="m 111.99597,23020.86 h 6.08536 v -1.021 c 0,0 0,0 0,0 -0.88934,0 -1.61334,-0.723 -1.61334,-1.612 0,-0.889 0.724,-1.612 1.61334,-1.612 0,0 0,0 0,0 v -1.021 h -6.08536 c -1.45201,0 -2.63334,1.181 -2.63334,2.633 0,1.452 1.18133,2.633 2.63334,2.633 z m -1.59601,-2.633 c 0,-0.88 0.71601,-1.596 1.59601,-1.596 0.88001,0 1.59601,0.716 1.59601,1.596 0,0.88 -0.716,1.596 -1.59601,1.596 -0.88,0 -1.59601,-0.716 -1.59601,-1.596 z"
     id="path7-0"
     gorn="0.1.1.8.0.24" /><path
     style="fill:#958863;stroke-width:1.33333"
     inkscape:connector-curvature="0"
     d="m 109.36263,23030.46 h 8.7187 v -1.021 c 0,0 0,0 0,0 -0.88934,0 -1.61334,-0.723 -1.61334,-1.612 0,-0.889 0.724,-1.612 1.61334,-1.612 0,0 0,0 0,0 v -1.021 h -8.7187 z m 1.03733,-2.633 c 0,-0.88 0.71601,-1.596 1.59601,-1.596 0.88001,0 1.59601,0.716 1.59601,1.596 0,0.88 -0.716,1.596 -1.59601,1.596 -0.88,0 -1.59601,-0.716 -1.59601,-1.596 z"
     id="path264-9"
     gorn="0.1.1.8.0.25" /><path
     style="fill:#958863;stroke-width:1.33333"
     inkscape:connector-curvature="0"
     d="m 111.99597,23040.06 h 6.08536 v -1.021 c 0,0 0,0 0,0 -0.88934,0 -1.61334,-0.723 -1.61334,-1.612 0,-0.889 0.724,-1.612 1.61334,-1.612 0,0 0,0 0,0 v -1.021 h -6.08536 c -1.45201,0 -2.63334,1.181 -2.63334,2.633 0,1.452 1.18133,2.633 2.63334,2.633 z m -1.59601,-2.633 c 0,-0.88 0.71601,-1.596 1.59601,-1.596 0.88001,0 1.59601,0.716 1.59601,1.596 0,0.88 -0.716,1.596 -1.59601,1.596 -0.88,0 -1.59601,-0.716 -1.59601,-1.596 z"
     id="path9-3"
     gorn="0.1.1.8.0.26" /><path
     style="fill:#958863;stroke-width:1.33333"
     inkscape:connector-curvature="0"
     d="m 111.99597,23049.66 h 6.08536 v -1.021 c 0,0 0,0 0,0 -0.88934,0 -1.61334,-0.723 -1.61334,-1.612 0,-0.889 0.724,-1.612 1.61334,-1.612 0,0 0,0 0,0 v -1.021 h -6.08536 c -1.45201,0 -2.63334,1.181 -2.63334,2.633 0,1.452 1.18133,2.633 2.63334,2.633 z m -1.59601,-2.633 c 0,-0.88 0.71601,-1.596 1.59601,-1.596 0.88001,0 1.59601,0.716 1.59601,1.596 0,0.88 -0.716,1.596 -1.59601,1.596 -0.88,0 -1.59601,-0.716 -1.59601,-1.596 z"
     id="path10-1"
     gorn="0.1.1.8.0.27" /><path
     style="fill:#958863;stroke-width:1.33333"
     inkscape:connector-curvature="0"
     d="m 111.99597,23059.26 h 6.08536 v -1.021 c 0,0 0,0 0,0 -0.88934,0 -1.61334,-0.723 -1.61334,-1.612 0,-0.889 0.724,-1.612 1.61334,-1.612 0,0 0,0 0,0 v -1.021 h -6.08536 c -1.45201,0 -2.63334,1.181 -2.63334,2.633 0,1.452 1.18133,2.633 2.63334,2.633 z m -1.59601,-2.633 c 0,-0.88 0.71601,-1.596 1.59601,-1.596 0.88001,0 1.59601,0.716 1.59601,1.596 0,0.88 -0.716,1.596 -1.59601,1.596 -0.88,0 -1.59601,-0.716 -1.59601,-1.596 z"
     id="path11-9"
     gorn="0.1.1.8.0.28" /><path
     style="fill:#958863;stroke-width:1.33333"
     inkscape:connector-curvature="0"
     d="m 111.99597,23068.86 h 6.08536 v -1.021 c 0,0 0,0 0,0 -0.88934,0 -1.61334,-0.723 -1.61334,-1.612 0,-0.889 0.724,-1.612 1.61334,-1.612 0,0 0,0 0,0 v -1.021 h -6.08536 c -1.45201,0 -2.63334,1.181 -2.63334,2.633 0,1.452 1.18133,2.633 2.63334,2.633 z m -1.59601,-2.633 c 0,-0.88 0.71601,-1.596 1.59601,-1.596 0.88001,0 1.59601,0.716 1.59601,1.596 0,0.88 -0.716,1.596 -1.59601,1.596 -0.88,0 -1.59601,-0.716 -1.59601,-1.596 z"
     id="path269-5"
     gorn="0.1.1.8.0.29" /><path
     style="fill:#958863;stroke-width:1.33333"
     inkscape:connector-curvature="0"
     d="m 109.36263,23078.46 h 8.7187 v -1.021 c 0,0 0,0 0,0 -0.88934,0 -1.61334,-0.723 -1.61334,-1.612 0,-0.889 0.724,-1.612 1.61334,-1.612 0,0 0,0 0,0 v -1.021 h -8.7187 z m 1.03733,-2.633 c 0,-0.88 0.71601,-1.596 1.59601,-1.596 0.88001,0 1.59601,0.716 1.59601,1.596 0,0.88 -0.716,1.596 -1.59601,1.596 -0.88,0 -1.59601,-0.716 -1.59601,-1.596 z"
     id="path13-1"
     gorn="0.1.1.8.0.30" /><path
     style="fill:#958863;stroke-width:1.33333"
     inkscape:connector-curvature="0"
     d="m 111.99597,23088.06 h 6.08536 v -1.021 c 0,0 0,0 0,0 -0.88934,0 -1.61334,-0.723 -1.61334,-1.612 0,-0.889 0.724,-1.612 1.61334,-1.612 0,0 0,0 0,0 v -1.021 h -6.08536 c -1.45201,0 -2.63334,1.181 -2.63334,2.633 0,1.452 1.18133,2.633 2.63334,2.633 z m -1.59601,-2.633 c 0,-0.88 0.71601,-1.596 1.59601,-1.596 0.88001,0 1.59601,0.716 1.59601,1.596 0,0.88 -0.716,1.596 -1.59601,1.596 -0.88,0 -1.59601,-0.716 -1.59601,-1.596 z"
     id="path272-2"
     gorn="0.1.1.8.0.31" /><path
     style="fill:#958863;stroke-width:1.33333"
     inkscape:connector-curvature="0"
     d="m 111.99597,23097.66 h 6.08536 v -1.021 c 0,0 0,0 0,0 -0.88934,0 -1.61334,-0.723 -1.61334,-1.612 0,-0.889 0.724,-1.612 1.61334,-1.612 0,0 0,0 0,0 v -1.021 h -6.08536 c -1.45201,0 -2.63334,1.181 -2.63334,2.633 0,1.452 1.18133,2.633 2.63334,2.633 z m -1.59601,-2.633 c 0,-0.88 0.71601,-1.596 1.59601,-1.596 0.88001,0 1.59601,0.716 1.59601,1.596 0,0.88 -0.716,1.596 -1.59601,1.596 -0.88,0 -1.59601,-0.716 -1.59601,-1.596 z"
     id="path15-9"
     gorn="0.1.1.8.0.32" /><path
     style="fill:#958863;stroke-width:1.33333"
     inkscape:connector-curvature="0"
     d="m 111.99597,23107.26 h 6.08536 v -1.021 c 0,0 0,0 0,0 -0.88934,0 -1.61334,-0.723 -1.61334,-1.612 0,-0.889 0.724,-1.612 1.61334,-1.612 0,0 0,0 0,0 v -1.021 h -6.08536 c -1.45201,0 -2.63334,1.181 -2.63334,2.633 0,1.452 1.18133,2.633 2.63334,2.633 z m -1.59601,-2.633 c 0,-0.88 0.71601,-1.596 1.59601,-1.596 0.88001,0 1.59601,0.716 1.59601,1.596 0,0.88 -0.716,1.596 -1.59601,1.596 -0.88,0 -1.59601,-0.716 -1.59601,-1.596 z"
     id="path275-7"
     gorn="0.1.1.8.0.33" /><path
     style="fill:#958863;stroke-width:1.33333"
     inkscape:connector-curvature="0"
     d="m 111.99597,23116.86 h 6.08536 v -1.021 c 0,0 0,0 0,0 -0.88934,0 -1.61334,-0.723 -1.61334,-1.612 0,-0.889 0.724,-1.612 1.61334,-1.612 0,0 0,0 0,0 v -1.021 h -6.08536 c -1.45201,0 -2.63334,1.181 -2.63334,2.633 0,1.452 1.18133,2.633 2.63334,2.633 z m -1.59601,-2.633 c 0,-0.88 0.71601,-1.596 1.59601,-1.596 0.88001,0 1.59601,0.716 1.59601,1.596 0,0.88 -0.716,1.596 -1.59601,1.596 -0.88,0 -1.59601,-0.716 -1.59601,-1.596 z"
     id="path17-9"
     gorn="0.1.1.8.0.34" /><path
     style="fill:#958863;stroke-width:1.33333"
     inkscape:connector-curvature="0"
     d="m 109.36263,23126.46 h 8.7187 v -1.021 c 0,0 0,0 0,0 -0.88934,0 -1.61334,-0.723 -1.61334,-1.612 0,-0.889 0.724,-1.612 1.61334,-1.612 0,0 0,0 0,0 v -1.021 h -8.7187 z m 1.03733,-2.633 c 0,-0.88 0.71601,-1.596 1.59601,-1.596 0.88001,0 1.59601,0.716 1.59601,1.596 0,0.88 -0.716,1.596 -1.59601,1.596 -0.88,0 -1.59601,-0.716 -1.59601,-1.596 z"
     id="path278-7"
     gorn="0.1.1.8.0.35" /><path
     style="fill:#958863;stroke-width:1.33333"
     inkscape:connector-curvature="0"
     d="m 111.99597,23136.06 h 6.08536 v -1.021 c 0,0 0,0 0,0 -0.88934,0 -1.61334,-0.723 -1.61334,-1.612 0,-0.889 0.724,-1.612 1.61334,-1.612 0,0 0,0 0,0 v -1.021 h -6.08536 c -1.45201,0 -2.63334,1.181 -2.63334,2.633 0,1.452 1.18133,2.633 2.63334,2.633 z m -1.59601,-2.633 c 0,-0.88 0.71601,-1.596 1.59601,-1.596 0.88001,0 1.59601,0.716 1.59601,1.596 0,0.88 -0.716,1.596 -1.59601,1.596 -0.88,0 -1.59601,-0.716 -1.59601,-1.596 z"
     id="path19-9"
     gorn="0.1.1.8.0.36" /><path
     style="fill:#958863;stroke-width:1.33333"
     inkscape:connector-curvature="0"
     d="m 111.99597,23145.659 h 6.08536 v -1.021 c 0,0 0,0 0,0 -0.88934,0 -1.61334,-0.723 -1.61334,-1.612 0,-0.89 0.724,-1.612 1.61334,-1.612 0,0 0,0 0,0 v -1.022 h -6.08536 c -1.45201,0 -2.63334,1.182 -2.63334,2.634 0,1.452 1.18133,2.633 2.63334,2.633 z m -1.59601,-2.633 c 0,-0.88 0.71601,-1.596 1.59601,-1.596 0.88001,0 1.59601,0.716 1.59601,1.596 0,0.88 -0.716,1.596 -1.59601,1.596 -0.88,0 -1.59601,-0.716 -1.59601,-1.596 z"
     id="path281-0"
     gorn="0.1.1.8.0.37" /><path
     style="fill:#958863;stroke-width:1.33333"
     inkscape:connector-curvature="0"
     d="m 68.795796,23140.391 c -1.452007,0 -2.633345,1.181 -2.633345,2.633 v 5.194 h 1.021338 c 0,0 0,0 0,0 0,-0.89 0.72267,-1.614 1.612007,-1.614 0.889337,0 1.612006,0.724 1.612006,1.614 0,0 0,0 0,0 h 1.021343 v -5.194 c 0,-1.452 -1.181343,-2.633 -2.633349,-2.633 z m 1.596007,2.633 c 0,0.88 -0.716004,1.596 -1.596007,1.596 -0.880004,0 -1.596007,-0.716 -1.596007,-1.596 0,-0.88 0.716003,-1.596 1.596007,-1.596 0.880003,0 1.596007,0.716 1.596007,1.596 z"
     id="path23-3"
     gorn="0.1.1.8.0.38" /><path
     style="fill:#958863;stroke-width:1.33333"
     inkscape:connector-curvature="0"
     d="m 75.761163,23140.472 v 7.744 h 1.021334 c 0,0 0,0 0,0 0,-0.889 0.722668,-1.613 1.612002,-1.613 0.889344,0 1.612013,0.724 1.612013,1.613 0,0 0,0 0,0 h 1.021334 v -7.744 z m 4.229346,2.552 c 0,0.88 -0.716007,1.596 -1.59601,1.596 -0.880002,0 -1.595999,-0.716 -1.595999,-1.596 0,-0.88 0.715997,-1.596 1.595999,-1.596 0.880003,0 1.59601,0.716 1.59601,1.596 z"
     id="path284-7"
     gorn="0.1.1.8.0.39" /><path
     style="fill:#958863;stroke-width:1.33333"
     inkscape:connector-curvature="0"
     d="m 87.995879,23140.391 c -1.452009,0 -2.633347,1.181 -2.633347,2.633 v 5.194 h 1.021335 c 0,0 0,0 0,0 0,-0.89 0.722668,-1.614 1.612012,-1.614 0.889334,0 1.612003,0.724 1.612003,1.614 0,0 0,0 0,0 h 1.021343 v -5.194 c 0,-1.452 -1.181347,-2.633 -2.633346,-2.633 z m 1.595999,2.633 c 0,0.88 -0.715996,1.596 -1.595999,1.596 -0.880003,0 -1.596009,-0.716 -1.596009,-1.596 0,-0.88 0.716006,-1.596 1.596009,-1.596 0.880003,0 1.595999,0.716 1.595999,1.596 z"
     id="path21-6"
     gorn="0.1.1.8.0.40" /><path
     style="fill:#958863;stroke-width:1.33333"
     inkscape:connector-curvature="0"
     d="m 111.99597,22963.26 h 6.08536 v -1.021 c 0,0 0,0 0,0 -0.88934,0 -1.61334,-0.723 -1.61334,-1.612 0,-0.889 0.724,-1.612 1.61334,-1.612 0,0 0,0 0,0 v -1.021 h -6.08536 c -1.45201,0 -2.63334,1.181 -2.63334,2.633 0,1.452 1.18133,2.633 2.63334,2.633 z m -1.59601,-2.633 c 0,-0.88 0.71601,-1.596 1.59601,-1.596 0.88001,0 1.59601,0.716 1.59601,1.596 0,0.88 -0.716,1.596 -1.59601,1.596 -0.88,0 -1.59601,-0.716 -1.59601,-1.596 z"
     id="path1-6"
     gorn="0.1.1.8.0.41" /><path
     style="fill:#958863;stroke-width:1.33333"
     inkscape:connector-curvature="0"
     d="m 47.429039,22960.627 c 0,-1.452 -1.181338,-2.633 -2.633344,-2.633 h -6.085359 v 1.021 c 0,0 0,0 0,0 0.889337,0 1.61334,0.723 1.61334,1.612 0,0.889 -0.724003,1.613 -1.61334,1.613 0,0 0,0 0,0 v 1.022 h 6.085359 c 1.452006,0 2.633344,-1.183 2.633344,-2.635 z m -2.633344,1.596 c -0.880003,0 -1.596007,-0.716 -1.596007,-1.596 0,-0.88 0.716004,-1.596 1.596007,-1.596 0.880004,0 1.596007,0.716 1.596007,1.596 0,0.88 -0.716003,1.596 -1.596007,1.596 z"
     id="path43-3"
     gorn="0.1.1.8.0.42" /><circle
     style="fill:none;stroke-width:0"
     r="1.5359995"
     id="connector0pin-1"
     cx="44.800335"
     cy="22960.627" /><circle
     style="fill:none;stroke-width:0"
     cy="22970.234"
     cx="44.800335"
     id="connector1pin-6"
     r="1.5359995" /><circle
     style="fill:none;stroke-width:0"
     r="1.5359995"
     id="connector2pin-6"
     cx="44.800335"
     cy="22979.834" /><circle
     style="fill:none;stroke-width:0"
     cy="22989.434"
     cx="44.800335"
     id="connector3pin-3"
     r="1.5359995" /><circle
     style="fill:none;stroke-width:0"
     r="1.5359995"
     id="connector4pin-0"
     cx="44.800335"
     cy="22999.033" /><circle
     style="fill:none;stroke-width:0"
     cy="23008.633"
     cx="44.800335"
     id="connector5pin-4"
     r="1.5359995" /><circle
     style="fill:none;stroke-width:0"
     r="1.5359995"
     id="connector6pin-4"
     cx="44.800335"
     cy="23018.234" /><circle
     style="fill:none;stroke-width:0"
     cy="23027.834"
     cx="44.800335"
     id="connector7pin-9"
     r="1.5359995" /><circle
     style="fill:none;stroke-width:0"
     r="1.5359995"
     id="connector8pin-0"
     cx="44.758335"
     cy="23037.434" /><circle
     style="fill:none;stroke-width:0"
     cy="23047.033"
     cx="44.758335"
     id="connector9pin-1"
     r="1.5359995" /><circle
     style="fill:none;stroke-width:0"
     r="1.5359995"
     id="connector10pin-6"
     cx="44.758335"
     cy="23056.633" /><circle
     style="fill:none;stroke-width:0"
     cy="23066.234"
     cx="44.758335"
     id="connector11pin-5"
     r="1.5359995" /><circle
     style="fill:none;stroke-width:0"
     r="1.5359995"
     id="connector12pin-4"
     cx="44.758335"
     cy="23075.834" /><circle
     style="fill:none;stroke-width:0"
     cy="23085.434"
     cx="44.758335"
     id="connector13pin-0"
     r="1.5359995" /><circle
     style="fill:none;stroke-width:0"
     r="1.5359995"
     id="connector14pin-8"
     cx="44.758335"
     cy="23095.033" /><circle
     style="fill:none;stroke-width:0"
     cy="23104.633"
     cx="44.758335"
     id="connector15pin-1"
     r="1.5359995" /><circle
     style="fill:none;stroke-width:0"
     r="1.5359995"
     id="connector16pin-5"
     cx="44.758335"
     cy="23114.234" /><circle
     style="fill:none;stroke-width:0"
     cy="23123.834"
     cx="44.758335"
     id="connector17pin-1"
     r="1.5359995" /><circle
     style="fill:none;stroke-width:0"
     r="1.5359995"
     id="connector18pin-3"
     cx="44.758335"
     cy="23133.434" /><circle
     style="fill:none;stroke-width:0"
     cy="23143.033"
     cx="44.758335"
     id="connector19pin-7"
     r="1.5359995" /><circle
     style="fill:none;stroke-width:0"
     r="1.5359995"
     id="connector20pin-1"
     cx="111.95834"
     cy="23143.033" /><circle
     style="fill:none;stroke-width:0"
     cy="23133.434"
     cx="111.95834"
     id="connector21pin-4"
     r="1.5359995" /><circle
     style="fill:none;stroke-width:0"
     r="1.5359995"
     id="connector22pin-4"
     cx="111.95834"
     cy="23123.834" /><circle
     style="fill:none;stroke-width:0"
     cy="23114.234"
     cx="111.95834"
     id="connector23pin-3"
     r="1.5359995" /><circle
     style="fill:none;stroke-width:0"
     r="1.5359995"
     id="connector24pin-3"
     cx="111.95834"
     cy="23104.633" /><circle
     style="fill:none;stroke-width:0"
     cy="23095.033"
     cx="111.95834"
     id="connector25pin-9"
     r="1.5359995" /><circle
     style="fill:none;stroke-width:0"
     r="1.5359995"
     id="connector26pin-5"
     cx="111.95834"
     cy="23085.434" /><circle
     style="fill:none;stroke-width:0"
     cy="23075.834"
     cx="111.95834"
     id="connector27pin-8"
     r="1.5359995" /><circle
     style="fill:none;stroke-width:0"
     r="1.5359995"
     id="connector28pin-3"
     cx="111.95834"
     cy="23066.234" /><circle
     style="fill:none;stroke-width:0"
     cy="23056.633"
     cx="111.95834"
     id="connector29pin-0"
     r="1.5359995" /><circle
     style="fill:none;stroke-width:0"
     r="1.5359995"
     id="connector30pin-7"
     cx="111.95834"
     cy="23047.033" /><circle
     style="fill:none;stroke-width:0"
     cy="23037.434"
     cx="111.95834"
     id="connector31pin-8"
     r="1.5359995" /><circle
     style="fill:none;stroke-width:0"
     r="1.5359995"
     id="connector32pin-7"
     cx="111.95834"
     cy="23027.834" /><circle
     style="fill:none;stroke-width:0"
     cy="23018.234"
     cx="111.95834"
     id="connector33pin-3"
     r="1.5359995" /><circle
     style="fill:none;stroke-width:0"
     r="1.5359995"
     id="connector34pin-6"
     cx="111.95834"
     cy="23008.633" /><circle
     style="fill:none;stroke-width:0"
     cy="22999.033"
     cx="111.95834"
     id="connector35pin-8"
     r="1.5359995" /><circle
     style="fill:none;stroke-width:0"
     r="1.5359995"
     id="connector36pin-1"
     cx="111.95834"
     cy="22989.434" /><circle
     style="fill:none;stroke-width:0"
     cy="22979.834"
     cx="111.95834"
     id="connector37pin-1"
     r="1.5359995" /><circle
     style="fill:none;stroke-width:0"
     r="1.5359995"
     id="connector38pin-0"
     cx="111.95834"
     cy="22970.234" /><circle
     style="fill:none;stroke-width:0"
     cy="22960.633"
     cx="111.95834"
     id="connector39pin-3"
     r="1.5359995" /><circle
     style="fill:none;stroke-width:0"
     cy="23143.033"
     cx="68.758331"
     id="connector40pin-6"
     r="1.5359995" /><circle
     style="fill:none;stroke-width:0"
     r="1.5359995"
     id="connector41pin-2"
     cx="78.358337"
     cy="23143.033" /><circle
     style="fill:none;stroke-width:0"
     cy="23143.033"
     cx="87.958336"
     id="connector42pin-4"
     r="1.5359995" /><circle
     style="overflow:visible;fill:none;stroke-width:0"
     r="1.5359995"
     id="connector20pin-0"
     cx="23142.992"
     cy="-68.787086"
     transform="rotate(90)" /><circle
     style="overflow:visible;fill:none;stroke-width:0"
     cy="-78.387085"
     cx="23142.992"
     id="connector21pin-5"
     r="1.5359995"
     transform="rotate(90)" /><circle
     style="overflow:visible;fill:none;stroke-width:0"
     r="1.5359995"
     id="connector22pin-7"
     cx="23142.992"
     cy="-87.987083"
     transform="rotate(90)" /><rect
     style="fill:#ffffff;fill-opacity:1;stroke:none;stroke-width:0.848253"
     id="rect8957"
     width="8.586297"
     height="9.2492094"
     x="84.474007"
     y="23090.912"
     ry="0" /><text
     xml:space="preserve"
     style="font-size:10.6667px;line-height:1.25;font-family:'Droid Sans';-inkscape-font-specification:'Droid Sans';letter-spacing:0px;word-spacing:0px"
     x="63.178574"
     y="23099.248"
     id="text8853"><tspan
       sodipodi:role="line"
       id="tspan8851"
       x="63.178574"
       y="23099.248"
       style="font-size:10.6667px;fill:#ffffff;fill-opacity:1">Pico</tspan></text><text
     xml:space="preserve"
     style="font-size:10.6667px;line-height:1.25;font-family:'Droid Sans';-inkscape-font-specification:'Droid Sans';letter-spacing:0px;word-spacing:0px"
     x="85.913567"
     y="23099.252"
     id="text8961"><tspan
       sodipodi:role="line"
       id="tspan8959"
       x="85.913567"
       y="23099.252"
       style="font-size:10.6667px;fill:#006837;fill-opacity:1">2</tspan></text></g></svg>
